<svg id="Calque_1" data-name="Calque 1" xmlns="http://www.w3.org/2000/svg" viewBox="0 0 81 80"><defs><style>.cls-1{fill:#f2dab2;}.cls-2{fill:#c2945e;}</style></defs><title>Pictos_TOAST_2020</title><circle class="cls-1" cx="40.93" cy="39.6" r="40"/><path class="cls-2" d="M54.25,22.14c-7.33,1.11-8.43,7.7-14.36,10.23-9.14,3.91-25.38,2.55-25.67,14.85.59,7.16,3.44,10.33,11.4,10.73a13.65,13.65,0,0,0,10.54-3.36c7.25-6.14,7.73-5.76,15.85-7.11C61,46,66.6,40.62,66.66,33.66c1-4.46-4.33-12.75-12.41-11.52"/><path class="cls-1" d="M20.82,52.11a.86.86,0,0,1-.83-.62c-.91-3-.66-5.59.73-7.62,2.55-3.73,8-4.21,8.2-4.23a.89.89,0,0,1,.94.8.87.87,0,0,1-.8.93h0s-4.84.44-6.91,3.48c-1.08,1.58-1.25,3.65-.5,6.14a.86.86,0,0,1-.58,1.08A.73.73,0,0,1,20.82,52.11Z"/></svg>