<svg id="Calque_1" data-name="Calque 1" xmlns="http://www.w3.org/2000/svg" viewBox="0 0 81 80"><defs><style>.cls-1{fill:#829938;}.cls-2{fill:#fff;}.cls-3{fill:none;stroke:#fff;stroke-linecap:round;stroke-miterlimit:10;}</style></defs><title>Pictos_TOAST_2020</title><circle class="cls-1" cx="40.93" cy="40.29" r="40"/><path class="cls-2" d="M53.44,44h-4V35a15.94,15.94,0,0,0-.09-1.9,3,3,0,0,0-.49-1.3,2.63,2.63,0,0,0-1.1-.92,3.4,3.4,0,0,0-1.44-.33,2.72,2.72,0,0,0-2.51,1A5,5,0,0,0,43,33.5a12.39,12.39,0,0,0-.14,1.82V44h-4V34.62a8.68,8.68,0,0,0-.1-1.5,3.31,3.31,0,0,0-.53-1.19,2.94,2.94,0,0,0-1.15-1,3.33,3.33,0,0,0-1.49-.36c-1.41,0-2.31.47-2.69,1.42a11,11,0,0,0-.58,4v8h-4V27.15H32v1.54a3.45,3.45,0,0,1,1.81-1.54,7,7,0,0,1,2.6-.52,5.35,5.35,0,0,1,4.47,2.09l.4.55.42-.55a5.57,5.57,0,0,1,2.19-1.56,7.34,7.34,0,0,1,2.74-.53,8,8,0,0,1,2.87.48,5.81,5.81,0,0,1,2.27,1.62,5.92,5.92,0,0,1,1.35,2.54,13.86,13.86,0,0,1,.35,3.28Z"/><path class="cls-2" d="M40.86,13.85A26.42,26.42,0,0,0,22.7,59.48l-1.11,9.59,9.05-4.4A26.44,26.44,0,1,0,40.86,13.85Zm0,51.88a25.4,25.4,0,0,1-9.73-1.94l-.51-.22-1.17.57-6.66,3.24.82-7.08.14-1.2-.22-.21a25.41,25.41,0,1,1,17.33,6.84Z"/><path class="cls-3" d="M53.44,47.9a1.22,1.22,0,0,0-.38,1.62s-5.22,5.13-12.56,5.13a18.29,18.29,0,0,1-12.22-5.13"/><path class="cls-3" d="M54.94,49.32s-.94,1.1-1.88.2"/></svg>