<svg id="Calque_1" data-name="Calque 1" xmlns="http://www.w3.org/2000/svg" xmlns:xlink="http://www.w3.org/1999/xlink" viewBox="0 0 81 80"><defs><style>.cls-1{fill:none;}.cls-2{fill:#829938;}.cls-3,.cls-5{fill:#fff;}.cls-4{clip-path:url(#clip-path);}.cls-5,.cls-6{fill-rule:evenodd;}.cls-6{fill:#24397a;}</style><clipPath id="clip-path"><path class="cls-1" d="M139.67,3.6a36.48,36.48,0,1,0,36.48,36.48A36.48,36.48,0,0,0,139.67,3.6Z"/></clipPath></defs><title>Pictos_TOAST_2020</title><path class="cls-2" d="M40.27,79.32A39.66,39.66,0,1,0,.62,39.66,39.66,39.66,0,0,0,40.27,79.32"/><path class="cls-3" d="M35,47.28q0,5.76-3.43,8.3a15.74,15.74,0,0,1-6.19,3.06,31.31,31.31,0,0,1-6,.53H9.65v-39H17q4.07,0,6,.18a12,12,0,0,1,4.25,1.37,10,10,0,0,1,3.87,3.57,9.22,9.22,0,0,1,.45,9.52,7,7,0,0,1-3.21,3,9.08,9.08,0,0,1,5,3.54A10.22,10.22,0,0,1,35,47.28ZM25.36,31a3.29,3.29,0,0,0-.66-2,3.62,3.62,0,0,0-1.42-1.22,5.58,5.58,0,0,0-1.55-.45,11,11,0,0,0-1.43-.1H16.87v8h2c1.61,0,2.59,0,2.92-.08a6,6,0,0,0,1.48-.52,3.38,3.38,0,0,0,1.55-1.4A4.06,4.06,0,0,0,25.36,31Zm2.38,16a4.17,4.17,0,0,0-.61-2.34,5,5,0,0,0-1.82-1.56,6.73,6.73,0,0,0-2.71-.79c-1-.09-1.65-.14-1.93-.14h-3.8v10h3a18.63,18.63,0,0,0,3.3-.26,8.16,8.16,0,0,0,3-1.33A4,4,0,0,0,27.74,47Z"/><path class="cls-3" d="M74.9,45.63a13,13,0,0,1-4,9.58,13.67,13.67,0,0,1-19.23,0,13,13,0,0,1-4-9.59,13.28,13.28,0,0,1,3.95-9.7,13.66,13.66,0,0,1,19.28,0A13.21,13.21,0,0,1,74.9,45.63Zm-4.84-.11a8.66,8.66,0,0,0-2.56-6.29,8.48,8.48,0,0,0-6.24-2.59,8.39,8.39,0,0,0-6.21,2.58,8.58,8.58,0,0,0-2.54,6.3,8.74,8.74,0,0,0,2.59,6.3,8.51,8.51,0,0,0,12.36,0A8.74,8.74,0,0,0,70.06,45.52Z"/><path class="cls-3" d="M49.72,59.16c-.58-.06-7.47,0-8,0a20.12,20.12,0,0,1-3.12-12.5L38.76,45a22.85,22.85,0,0,1,2.47-8,.18.18,0,0,0,0-.2L41,36.49l-1-1.56a32.86,32.86,0,0,1-1.46-3.27c-.09-.25-.1-.56-.16-.7a.14.14,0,0,0-.12-.09h0a.18.18,0,0,0-.1.16,6,6,0,0,0,0,.81,5.27,5.27,0,0,0,.53,2.43,11.69,11.69,0,0,0,.54,1.12.39.39,0,0,1,.06.3.31.31,0,0,1-.19.22,1.27,1.27,0,0,1-.34.05C37.59,36,37,34,37,33.94a7.11,7.11,0,0,1,1.37-6.69.27.27,0,0,1,.18-.08h.09a.32.32,0,0,1,.18.24,4,4,0,0,0,1.45,2.45,5.41,5.41,0,0,1,1.49,2,2.13,2.13,0,0,1-.52,2.59.2.2,0,0,0,0,.23l.05.08c.12.22.34.6.52.9a.14.14,0,0,0,.11.06h0a.11.11,0,0,0,.11-.06A13.56,13.56,0,0,1,45,32.15a.24.24,0,0,1,.14,0,15.24,15.24,0,0,1,3.3.33.78.78,0,0,1-.18.7C38.84,44.35,45.34,55.28,49.72,59.16Z"/><g class="cls-4"><path class="cls-5" d="M78.59,79.85a4.22,4.22,0,0,1-.91-.19l45.17,0a8,8,0,0,0,.22-1.34q0-38.7,0-77.39h33.14V79.66h39.47c0,.07-.06.19-.1.19-.27,0-.54,0-.82,0"/><path class="cls-6" d="M123.07,79.64l-42.2,0V.91H123.1V78.32C123.1,78.76,123.08,79.2,123.07,79.64Z"/></g></svg>