<svg id="Calque_1" data-name="Calque 1" xmlns="http://www.w3.org/2000/svg" viewBox="0 0 81 80"><defs><style>.cls-1{fill:#efefa9;}.cls-2{fill:#4c9c2e;}.cls-3{fill:#c2d500;}.cls-4{fill:#176917;}.cls-5{fill:#61a60e;}.cls-6{fill:#cddb00;}</style></defs><title>Pictos_TOAST_2020</title><ellipse class="cls-1" cx="39.99" cy="40.32" rx="39.43" ry="39.62"/><path class="cls-2" d="M36.4,36.56s-1.08-1.53-4.81.55c0,0-1.07.1.16-.66,0,0-3.07-.29-.48-.62,0,0,.14-.43-1.11-.41,0,0-2.13-.46-.68-.74,0,0-1.77-.51-.12-.74,0,0-1.53-1.19,1.08-.68,0,0-1.19-1.49,1.27-.46,0,0-.75-1.28,1,.12,0,0-.29-1,.47-.31,0,0,.63,1.81,2.08,2.08,0,0,1.16.39-.44-1.52a7.22,7.22,0,0,0-2.51-2.41s-.42-.56.67-.51c0,0-.34-2.55.34-1.87,0,0,0-1.57.69-1.09s.17,0,.17,0-.87-1.38-.14-1.12c0,0,.3-1.19.88.2,0,0,.42-.94.65.33,0,0,.57-.71.63,1,0,0,.85-1.43.71.68,0,0,.93-.86.69.54a1.58,1.58,0,0,0-.38,1.16s1.1-1.34.68,0A5.65,5.65,0,0,0,37,33.86s.07.92.38-.17a13.12,13.12,0,0,1,1.47-2.83s1-1.73.81-.39c0,0,1.75-1.89,1.57-.62,0,0,1.66-1,1,0,0,0-.52.41,0,.29,0,0,1.1-.73,1.28-.25,0,0,.52,0-.16.69,0,0,.62.36-.57,1.17,0,0,.86.12-.22.76,0,0,1.07.06.43.64,0,0-5,1.56-6.1,3,0,0,.18,1-.56.42"/><path class="cls-3" d="M50,27.52s1.19-1.12,4,1.31c0,0,.9.27,0-.6,0,0,2.67.3.51-.44,0,0,0-.39,1-.16,0,0,1.91,0,.71-.51,0,0,1.61-.13.24-.62,0,0,1.51-.75-.81-.76,0,0,1.28-1.08-1-.62,0,0,.86-1-.87-.07,0,0,.41-.76-.35-.34a2.88,2.88,0,0,1-2.14,1.41s-1.05.13.64-1.22a6.33,6.33,0,0,1,2.57-1.63s.46-.41-.48-.55c0,0,.73-2.12,0-1.66,0,0,.28-1.34-.4-1s-.15,0-.15,0,1-1,.32-.94c0,0-.05-1.07-.79,0,0,0-.2-.88-.61.17,0,0-.37-.71-.72.76,0,0-.48-1.37-.73.46,0,0-.64-.89-.68.34a1.39,1.39,0,0,1,.12,1.06s-.71-1.34-.58-.11a5,5,0,0,1,.08,3.36s-.23.77-.3-.21a11.57,11.57,0,0,0-.77-2.68s-.59-1.66-.63-.47c0,0-1.16-1.92-1.23-.81,0,0-1.24-1.15-.89-.15,0,0,.37.44,0,.25,0,0-.81-.82-1.05-.44,0,0-.44-.11,0,.62,0,0-.59.2.29,1.1,0,0-.76,0,.05.69,0,0-.93-.14-.48.47,0,0,4,2.2,4.7,3.6,0,0-.34.86.41.45"/><path class="cls-2" d="M62.24,30.91c1.1-1-.12-.9-.12-.9,0-.76-1,.53-1,.53s-.27.66-.06-.17-1.26-.27-1.26-.27c.4-.87-1.87.32-1.87.32-.33-1-.71-.46-.71-.46a7.34,7.34,0,0,1-1.4,3.2,6.23,6.23,0,0,1-.67,1l-.63-.25s0-.06,0-.1c.37-.13.26-.23,0-.3a3.76,3.76,0,0,1,1.25-2.07c.34-.93-.46-.34-.46-.34.07-.18.11-.33.15-.46.49-.27.33-.42.11-.5a.47.47,0,0,0,0-.28c.84-.53.22-.68.22-.68.92-.66,0-.64,0-.64.87-1-.18-.77-.18-.77-.07-.67-.83.54-.83.54s-.18.59-.06-.14c.07-.5-.46-.38-.82-.26-.14-.27-.28-.26-.4-.14a1.27,1.27,0,0,0-.49.13H53c-.21-.27-.31-.17-.36,0-.43-.09.11-.23.11-.23.86-.63-.82-.39-.82-.39.58-.95-1.47,0-1.47,0,.64-1-.79,0-.79,0l-.23.14c-.24-.85-.71.13-.71.13a6.25,6.25,0,0,0-.23-.72,4.94,4.94,0,0,1,.63-.5c.8-.94-.55-.24-.55-.24.09-.49.71-.8.71-.8.67-1-.37-.67-.37-.67.84-1.65-.33-.8-.33-.8.54-1.41-.16-1-.16-1,.25-1.1-.41-.49-.41-.49,0-1.31-.64-.46-.64-.46-.49-.46-.27.95-.27.95s.26.57-.14-.06-.92.64-.92.64c-.32-.78-.92,1.38-.92,1.38-.86-.42-.72.18-.72.18a6.4,6.4,0,0,1,1.2,2.8c.62,2.08-.18,1.37-.18,1.37a2.9,2.9,0,0,1-.95-2.39c-.39-.77-.49.09-.49.09-.91-1.73-.75-.44-.75-.44-1.62-1.67-1.18-.06-1.18-.06-1.91-1.32-1.1.17-1.1.17-1.4-.39-.15.64-.15.64-1.27-.28.29.83.29.83,1,.41.74.7.74.7-2.19-.62.17.66.17.66-1.24.19-.35.48-.35.48,3.44-.36,4,1,4,1.19a22.78,22.78,0,0,1-2.3,5.56A233.08,233.08,0,0,0,23,54.52l-1.8,7.57c7.19-3.52,15.29-14.48,15.29-14.48,4.95-6,11.28-12.3,12.7-13.69,1.6.68,4.29,3.59,4.29,3.59.71.28.35-.58.35-.58.91.61.68-.12.68-.12a2,2,0,0,0,.61.26,31.2,31.2,0,0,1,3.52,3.84c.77.39.45-.63.45-.63,1,.79.79-.06.79-.06,1.17.85,1.3.14,1.3.14.9.4.7-.09.7-.09.39-.33-.68-1.11-.68-1.11-.28-.44.28-.09.28-.09,1.19.22-.33-1-.33-1C62.4,37.81,60,36.82,60,36.82c1.34-.25-.65-.63-.65-.63a12.85,12.85,0,0,0-3.15-.41c-.64,0-.65-.05-.54-.15l.11,0c.45,0,.45-.11.31-.29A5.73,5.73,0,0,1,59.75,35c1.41-.07-.22-.65-.22-.65a1.61,1.61,0,0,1,1.22,0c1.39-.25.26-.83.26-.83,2-.59.41-.9.41-.9,1.6-.65.73-.95.73-.95C63.27,31,62.24,30.91,62.24,30.91ZM48.39,33.1c-1.12.69-2.29,1.48-3.49,2.35a24.31,24.31,0,0,0,1.54-4.64,2.66,2.66,0,0,1,.56-.16c1.26,1.13,1.45,2,1.42,2.47Zm1-1.19a2.12,2.12,0,0,1,.18-1.44c.4,0,.79,0,1.14,0a5.18,5.18,0,0,1-.29.5C49.5,33,49.37,31.91,49.37,31.91ZM51,33.25c-1,.16-.28-.25-.28-.25a5.06,5.06,0,0,1,1.3-.58,7.7,7.7,0,0,1,.64.8A11.6,11.6,0,0,0,51,33.25Z"/><path class="cls-4" d="M42.45,25.13c1.56-.89,6.76-.57,6.76-.57.8-.32-.17-.75-.17-.75,1.23-.21.47-.64.47-.64,1.4-.32,1-.89,1-.89.9-.41.4-.58.4-.58,0-.51-1.28-.22-1.28-.22-.52-.08.11-.27.11-.27,1-.75-1-.4-1-.4.62-1.12-1.68,0-1.68,0,.69-1.18-.9.07-.9.07A12.8,12.8,0,0,0,43.76,23c-.68.9-.42,0-.42,0a5.69,5.69,0,0,1,2.15-3.19c.87-1.11-.64-.26-.64-.26.08-.56.78-.94.78-.94.72-1.22-.45-.75-.45-.75.89-1.92-.42-.9-.42-.9.56-1.63-.23-1.17-.23-1.17.25-1.27-.49-.55-.49-.55,0-1.5-.75-.5-.75-.5-.58-.5-.26,1.1-.26,1.1s.31.64-.17-.06-1,.77-1,.77c-.39-.88-1,1.62-1,1.62-1-.44-.81.24-.81.24a7.32,7.32,0,0,1,1.48,3.15c.8,2.35-.14,1.57-.14,1.57a3.31,3.31,0,0,1-1.19-2.68c-.48-.87-.55.12-.55.12-1.12-1.94-.88-.47-.88-.47-1.93-1.85-1.35,0-1.35,0-2.25-1.41-1.26.25-1.26.25-1.62-.38-.14.73-.14.73-1.46-.26.37.94.37.94,1.16.43.88.78.88.78-2.54-.62.22.74.22.74-1.41.28-.38.57-.38.57,4.23-.6,4.69,1.21,4.69,1.21.46.86.67-.19.67-.19m9.91,7.15s.69-1.73-3.08-3.73c0,0-.67-.84.63-.23,0,0-1.43-2.73.26-.74,0,0,.44-.12-.26-1.15,0,0-.77-2,.25-1,0,0-.53-1.77.55-.51,0,0,.18-1.93,1.16.54,0,0,.61-1.81,1.08.81,0,0,.67-1.32.44.9,0,0,.64-.76.51.22a3.37,3.37,0,0,0-.61,2.88s.31,1.18,1-1.19A7.32,7.32,0,0,0,55,25.68s.24-.66.8.29c0,0,1.95-1.67,1.75-.73,0,0,1.31-.87,1.29,0s.09.15.09.15.68-1.48.86-.74c0,0,1.17-.39.32.85,0,0,1-.16.08.73,0,0,.9.09-.51,1.08,0,0,1.66-.06-.19,1,0,0,1.22.31-.08.87a1.59,1.59,0,0,0-1.18.31s1.73.2.37.58A5.68,5.68,0,0,0,55,31.35s-.72.56.36.23a12.58,12.58,0,0,1,3.17-.31s2-.07.77.47c0,0,2.53.43,1.38,1,0,0,1.74.84.53.89,0,0-.62-.21-.25.16,0,0,1.22.51.91.92,0,0,.31.43-.66.25,0,0,0,.72-1.3.16,0,0,.37.78-.75.23,0,0,.53.93-.31.71,0,0-4-3.31-5.8-3.5,0,0-.78.72-.65-.25"/><path class="cls-2" d="M55.07,27.75s.84-1.67-2.75-4c0,0-.59-.9.66-.18,0,0-1.2-2.84.31-.71,0,0,.45-.08-.16-1.17,0,0-.59-2.1.34-.95,0,0-.39-1.81.59-.46,0,0,.34-1.91,1.11.64,0,0,.76-1.76,1,.9,0,0,.78-1.27.36.93,0,0,.71-.7.5.27a3.36,3.36,0,0,0-.86,2.81s.21,1.2,1.14-1.1a7.35,7.35,0,0,0,.94-3.35s.3-.64.77.34c0,0,2.08-1.49,1.81-.57,0,0,1.37-.75,1.28.09s.08.16.08.16.81-1.42.93-.66c0,0,1.18-.29.24.87,0,0,1-.07,0,.73,0,0,.9.17-.6,1,0,0,1.66.08-.27,1,0,0,1.2.41-.15.86a1.57,1.57,0,0,0-1.2.21s1.7.34.31.6a5.69,5.69,0,0,0-3.71,1s-.77.5.34.26a13,13,0,0,1,3.18,0s2,.1.73.53c0,0,2.49.65,1.29,1.09,0,0,1.67,1,.45.93,0,0-.6-.27-.25.13,0,0,1.16.62.82,1,0,0,.27.45-.68.18,0,0,0,.72-1.3.05,0,0,.29.82-.78.17,0,0,.46,1-.36.68,0,0-3.72-3.64-5.49-4,0,0-.84.65-.63-.3"/><path class="cls-5" d="M64,39.65c.4-.53-1-.17-1-.17s-.54.31,0-.15-.72-.86-.72-.86c.74-.39-1.47-.77-1.47-.77.33-.9-.25-.7-.25-.7a6.3,6.3,0,0,1-2.67,1.46c-2,.83-1.38,0-1.38,0a2.91,2.91,0,0,1,2.28-1.18c.74-.46-.13-.47-.13-.47,1.62-1.08.36-.79.36-.79,1.51-1.78,0-1.18,0-1.18,1.12-2-.28-1.08-.28-1.08.24-1.44-.65-.09-.65-.09.15-1.29-.8.37-.8.37-.31,1-.63.81-.63.81.41-2.24-.64.24-.64.24-.31-1.22-.51-.3-.51-.3.47,2.25,0,3.3-.34,3.78h0a29.76,29.76,0,0,0-6.84,2C49.94,38.65,51,37.41,51,37.41l-1.51-2.26c-2.39,3.06-9.75,10.65-9.75,10.65-9,9.24-12.49,11.67-12.49,11.67a71.61,71.61,0,0,0-7.46,5L18.94,66c5.62,5,17.2-11.73,17.2-11.73,1.49-2,4.55-5.69,4.55-5.69,2.3-2.25,4.46-4.57,6.21-6.5a34.39,34.39,0,0,1,7.6-2.73,1,1,0,0,0,.38.13c.87,1.32.86,5.86.86,5.86.32.69.65-.19.65-.19.25,1.07.58.38.58.38.36,1.21.82.78.82.78.42.76.54.32.54.32.44,0,.12-1.13.12-1.13,0-.46.24.08.24.08.7.79.3-.85.3-.85,1,.48-.11-1.47-.11-1.47,1.06.54-.11-.78-.11-.78a11.22,11.22,0,0,0-2-2c-.83-.54-.05-.37-.05-.37a5,5,0,0,1,2.9,1.7c1,.71.19-.56.19-.56.5,0,.87.62.87.62,1.1.57.62-.43.62-.43,1.73.68.76-.41.76-.41,1.46.4,1-.26,1-.26,1.12.14.44-.46.44-.46,1.31-.11.4-.68.4-.68"/><path class="cls-6" d="M48.54,27.25c.89-.43.38-.59.38-.59,0-.51-1.28-.2-1.28-.2-.52-.07.1-.27.1-.27.95-.77-1-.4-1-.4.6-1.12-1.69.05-1.69.05.67-1.18-.9.08-.9.08a12.89,12.89,0,0,0-2.35,2.15c-.67.91-.43,0-.43,0a5.68,5.68,0,0,1,2.1-3.22c.87-1.12-.63-.24-.63-.24.06-.57.76-1,.76-1,.7-1.23-.46-.74-.46-.74.86-1.94-.43-.89-.43-.89.53-1.64-.25-1.18-.25-1.18.23-1.27-.49-.53-.49-.53-.07-1.5-.76-.49-.76-.49-.59-.49-.25,1.1-.25,1.1s.32.64-.17-.05-1,.78-1,.78c-.41-.88-1,1.63-1,1.63-1-.42-.8.25-.8.25a7.34,7.34,0,0,1,1.53,3.13c.83,2.34-.12,1.58-.12,1.58a3.34,3.34,0,0,1-1.23-2.67c-.49-.87-.55.13-.55.13-1.15-1.92-.89-.46-.89-.46-1.95-1.82-1.35,0-1.35,0-2.27-1.39-1.25.26-1.25.26-1.63-.36-.14.74-.14.74-1.46-.25.39.93.39.93,1.17.41.89.76.89.76-2.54-.58.24.74.24.74-1.41.3-.38.57-.38.57,4-.62,4.64.95,4.7,1.13a29.41,29.41,0,0,1-1.49,4.38A157.06,157.06,0,0,0,21.89,51.58C14.37,61.79,17.3,64.77,17.3,64.77c1.26,1,2.89,2.08,2.89,2.08C28.71,46.25,44.08,32,44.08,32l-.85-1.39q-1.77,1.48-3.4,2.91a25.62,25.62,0,0,0,.86-3.36c1.69-.85,6.62-.61,6.62-.61.8-.33-.18-.75-.18-.75,1.23-.23.47-.64.47-.64,1.39-.35.94-.9.94-.9"/></svg>