<svg id="Calque_1" data-name="Calque 1" xmlns="http://www.w3.org/2000/svg" viewBox="0 0 81 80"><defs><style>.cls-1{fill:#ffbfab;}.cls-2{fill:#ff5c35;}</style></defs><title>Pictos_TOAST_2020</title><circle class="cls-1" cx="40.93" cy="39.6" r="40"/><path class="cls-2" d="M64.51,34.82c2.6.75,5.6,6.47,5.6,6.47a29,29,0,0,0,0-4.09c-.18-1.4-2.35-2.72-3.56-4.26a1.44,1.44,0,0,0-1.83-.55A.75.75,0,0,0,64,31.9c-1.12,0-4.92,3.4-6.57,4.93-.21-.31-.43-.5-.6-.44a48.19,48.19,0,0,0-4,2.93,8.36,8.36,0,0,0-.41-2c2-.24,4.81-.89,3.25-2.67a5,5,0,0,0,1.72-5.84c-.66-1.91-1.27-2.22-1.85-1.87,0-1.4,0-4-1.22-4.77a1.66,1.66,0,0,0-.54-.24l-.12-.34A9.92,9.92,0,0,0,51,17.37a10.33,10.33,0,0,0-5.12-1.78s3.59,2.45,4.57,4.72a15.27,15.27,0,0,0,1.23,2.22,3.44,3.44,0,0,1-3-.86c-3.33-2.37-3.89-5-3.89-5s-1.22,4.23.42,6.39c1.12,1.47,3.36,2.39,5,3.06a7.84,7.84,0,0,1,1.67.81A14.93,14.93,0,0,1,53.76,29a4.79,4.79,0,0,1-.42.46,3,3,0,0,0-.66,2.73c-.69-.17-1.24.37-2.25,1.65a5.49,5.49,0,0,0-.41.62,11.14,11.14,0,0,0-2.35-1.15,1.36,1.36,0,0,0,0-.3,1.06,1.06,0,0,0-1-1.15,1,1,0,0,0-.92.9l-.5-.11a24.2,24.2,0,0,0-4.41-.54,25,25,0,0,0-4.91.65,1,1,0,0,0-.92-.9,1.06,1.06,0,0,0-1,1.15,1.36,1.36,0,0,0,0,.3,11.14,11.14,0,0,0-2.35,1.15,5.49,5.49,0,0,0-.41-.62c-1-1.28-1.56-1.82-2.25-1.65a3,3,0,0,0-.66-2.73A4.79,4.79,0,0,1,28.1,29,14.93,14.93,0,0,1,30,26.92c.91-.74,5-1.71,6.64-3.87s.42-6.39.42-6.39-.56,2.64-3.89,5a3.44,3.44,0,0,1-3,.86,15.27,15.27,0,0,0,1.23-2.22C32.37,18,36,15.59,36,15.59a10.33,10.33,0,0,0-5.12,1.78,10.4,10.4,0,0,0-2.7,4.57,1.58,1.58,0,0,0-.54.24c-1.17.81-1.26,3.37-1.22,4.77-.59-.35-1.19,0-1.86,1.87a5.06,5.06,0,0,0,1.73,5.84c-1.57,1.78,1.26,2.43,3.25,2.67a8.89,8.89,0,0,0-.42,2,46.89,46.89,0,0,0-4-2.93c-.17-.06-.39.13-.61.44C22.81,35.3,19,31.88,17.9,31.9a.75.75,0,0,0-.76.49,1.44,1.44,0,0,0-1.83.55c-1.21,1.54-3.38,2.86-3.56,4.26a29,29,0,0,0,0,4.09s3-5.72,5.6-6.47a23.68,23.68,0,0,0,6,4.18l-.05.12a14.16,14.16,0,0,0,3.73,2.93,7.38,7.38,0,0,0,2.13.52c.06.45.13.9.22,1.34a52.51,52.51,0,0,0-5.48-1.22c-.16,0-.27.29-.35.66-1.86-.68-6.11-2.14-7-1.63a.82.82,0,0,0-.46.78c-.5,0-1.08.3-1.33,1.31-.49,1.94-1.84,4.11-1.53,5.47A29.76,29.76,0,0,0,14.56,53s.59-6.57,2.48-8.4a17.78,17.78,0,0,0,6.34,1.19V46a10.68,10.68,0,0,0,4,1,4.52,4.52,0,0,0,2.52-.84c.16.59.34,1.15.53,1.66-2.08-.11-5-.25-5.46-.16a.34.34,0,0,0-.21.13,1.18,1.18,0,0,0-.65-.46s-5.91,3.83-6.26,5.2a.92.92,0,0,0,.11.77,1.72,1.72,0,0,0-.21,1.6c.53,1.84.48,4.36,1.36,5.28A24.13,24.13,0,0,0,22,62.41s-2.83-6.1-1.86-8.49a22.42,22.42,0,0,0,4.1-3.6.94.94,0,0,1,0,.14,17.73,17.73,0,0,0,5,.29,13.7,13.7,0,0,0,2.26-.59,5.9,5.9,0,0,0,.37.63l-.44.6a11.54,11.54,0,0,0-1.23,0,.39.39,0,0,0-.16.1.85.85,0,0,0-.49-.34S25.08,54,24.82,55a.68.68,0,0,0,.09.58,1.22,1.22,0,0,0-.16,1.19c.25.87.32,1.93.51,2.77a2.49,2.49,0,0,0,.5,1.17,18.42,18.42,0,0,0,2.1,1.67A20.61,20.61,0,0,1,26.42,58a3.79,3.79,0,0,1,0-2,16.66,16.66,0,0,0,3.06-2.69v.11l.24,0a12.09,12.09,0,0,0,3.48.17,9.79,9.79,0,0,0,1.42-.35,12.34,12.34,0,0,0,6.26,1.31,12.34,12.34,0,0,0,6.26-1.31,9.79,9.79,0,0,0,1.42.35,13.14,13.14,0,0,0,3.72-.21v-.11a16.66,16.66,0,0,0,3.06,2.69c.72,1.78-1.39,6.34-1.39,6.34a18.42,18.42,0,0,0,2.1-1.67c.66-.68.62-2.57,1-3.94A1.25,1.25,0,0,0,57,55.61.68.68,0,0,0,57,55c-.26-1-4.67-3.88-4.67-3.88a.85.85,0,0,0-.49.34.39.39,0,0,0-.16-.1,21.31,21.31,0,0,0-2.28,0,2.09,2.09,0,0,1,.48-.52,2.22,2.22,0,0,0,.5-.75,13.7,13.7,0,0,0,2.26.59,17.73,17.73,0,0,0,5-.29.79.79,0,0,1,0-.14,22.42,22.42,0,0,0,4.1,3.6c1,2.39-1.86,8.49-1.86,8.49a24.13,24.13,0,0,0,2.81-2.23c.88-.92.83-3.44,1.35-5.28a1.66,1.66,0,0,0-.21-1.6.88.88,0,0,0,.12-.77c-.35-1.37-6.26-5.2-6.26-5.2a1.18,1.18,0,0,0-.65.46.34.34,0,0,0-.21-.13c-.45-.09-3.38.05-5.46.16.18-.51.36-1.07.53-1.66a4.52,4.52,0,0,0,2.52.84,10.68,10.68,0,0,0,4-1v-.14a17.78,17.78,0,0,0,6.34-1.19C66.71,46.46,67.3,53,67.3,53a29.76,29.76,0,0,0,1.34-3.75c.31-1.36-1-3.53-1.53-5.47-.25-1-.83-1.28-1.33-1.31a.82.82,0,0,0-.46-.78c-.92-.51-5.17,1-7,1.63-.08-.37-.19-.64-.35-.66a52,52,0,0,0-5.48,1.22c.09-.44.16-.89.22-1.34a7.32,7.32,0,0,0,2.12-.52,14.09,14.09,0,0,0,3.74-2.93l0-.12A24,24,0,0,0,64.51,34.82Z"/></svg>