<svg id="Calque_1" data-name="Calque 1" xmlns="http://www.w3.org/2000/svg" viewBox="0 0 81 80"><defs><style>.cls-1{fill:#829938;}.cls-2{fill:#fff;}</style></defs><title>Pictos_TOAST_2020</title><path class="cls-1" d="M40.67,80.06A39.65,39.65,0,1,0,1,40.41,39.65,39.65,0,0,0,40.67,80.06"/><path class="cls-2" d="M59.7,38.88C64.06,43,73,39.31,74.42,34.19,70.79,29.8,61.12,32.47,59.7,38.88Z"/><path class="cls-2" d="M62.5,24.18c-4.45.45-7.47,8.5-4.18,12.56C63,35.66,65,27.59,62.5,24.18Z"/><path class="cls-2" d="M55.69,37.19H52.86V26a8.22,8.22,0,0,0-8.21-8.21H23.48A8.22,8.22,0,0,0,15.26,26V37.19H12.39a3.48,3.48,0,0,0,0,7h.95L17.65,63H50.22l4.44-18.87h1a3.48,3.48,0,0,0,0-7ZM23.4,34.37c.49.53.13-1,.93-.75a2.91,2.91,0,0,0,1.36,3.57H21.32A12.85,12.85,0,0,1,24.46,31C23.9,32,23.12,34.07,23.4,34.37Zm3.84,25.79a1.57,1.57,0,0,1-1.09.57H26a1.6,1.6,0,0,1-1.14-.48,1.64,1.64,0,0,1-.47-1l-.93-9.72L23.24,47l-.15-1.6a.86.86,0,0,1,0-.16,1.61,1.61,0,0,1,.35-1,1.54,1.54,0,0,1,1.09-.57h.13a1.61,1.61,0,0,1,1.61,1.49l.52,5.42L27,52.27,27.59,59c0,.05,0,.11,0,.16A1.61,1.61,0,0,1,27.24,60.16Zm5.75-1a1.66,1.66,0,0,1-.4,1.08,1.53,1.53,0,0,1-1.17.54h0a1.59,1.59,0,0,1-1.19-.53,1.62,1.62,0,0,1-.41-1.07l-.08-5.64,0-1.47-.1-6.8v0a1.7,1.7,0,0,1,.4-1.07,1.55,1.55,0,0,1,1.17-.54h0a1.55,1.55,0,0,1,1.19.53,1.68,1.68,0,0,1,.41,1.07l0,3,.07,4.55,0,1.39.07,5Zm5.82-13.88-.09,6.67,0,1.47-.08,5.76h0a1.6,1.6,0,0,1-1.6,1.6h0a1.57,1.57,0,0,1-1.18-.54,1.66,1.66,0,0,1-.4-1.08v0l.07-5,0-1.4.11-7.49A1.68,1.68,0,0,1,36,44.12a1.55,1.55,0,0,1,1.19-.53h0a1.53,1.53,0,0,1,1.17.54,1.58,1.58,0,0,1,.4,1.07Zm-12-8a1,1,0,0,0-.07-.38c-.26-.42-.58-.73-.3-1.31-.25-.44-.91.18-1-.26-.25-1.14.49-1.07,1-2.37.14-.34.7.35,1,.58.13.09.4.6.74.48.16-.06-.14-.51-.08-.84a3.84,3.84,0,0,1,3-2.46c.59-.35-.63-.64,0-.94s1.11.62,1.31.19-.75-1.55-1.31-1.69c-.87.13-1,1.64-1.69,1.31a.9.9,0,0,1-.56-.94c.07-.37.49-.12.82-.36.63-.46,1.4-.11,2.18-.38.47-.17-.49-.71,0-.75.48.16.47-.13.63-.14.44,0,.41.84.68,1.07s.36-.41.59-.56a3.73,3.73,0,0,1,4.79,1.12c.4.85-1,.15-1.07.62-.16.86,1.07.21,1.24,1.1-.23.29-.75.92-.2,1s.91-.39,1,.05c.9.09.41-1.21,1.31-1.12a1.3,1.3,0,0,0,1,.35c.29,0,.46.92.73.77s.77,0,1.13-.12.45,1.24-.07,1.08-.91.62-1.14.23a1.66,1.66,0,0,0-1.88-.93c-2.34.76-1.33,1.71-1.21,3.46,0,.36-.55.8-.39,1.16.1.2.68.1.82.27a2.56,2.56,0,0,1,.37.67Zm18.57,8.2,0,.3-.07.65L45,49.1,44,59.24a1.64,1.64,0,0,1-.47,1,1.6,1.6,0,0,1-1.14.48h-.13a1.56,1.56,0,0,1-1.44-1.59V59l.67-6.91.17-1.78.49-5.16a1.61,1.61,0,0,1,1.61-1.49h.13a1.52,1.52,0,0,1,1.09.57,1.62,1.62,0,0,1,.36,1C45.34,45.28,45.33,45.34,45.33,45.39Zm4.24-8.2H48.16a14.36,14.36,0,0,0-28.25,0H18.55V26a4.93,4.93,0,0,1,4.93-4.92H44.65A4.93,4.93,0,0,1,49.57,26Z"/></svg>