<svg id="Calque_1" data-name="Calque 1" xmlns="http://www.w3.org/2000/svg" viewBox="0 0 81 80"><defs><style>.cls-1{fill:#829938;}.cls-2{fill:#fff;}</style></defs><title>Pictos_TOAST_2020</title><circle class="cls-1" cx="40.69" cy="40" r="40"/><path class="cls-2" d="M27.85,44.62c0-2.62,0-5.18,0-7.74a7.36,7.36,0,0,0-1.21-4.16,24.9,24.9,0,0,0-1.46-2,12.2,12.2,0,0,1-2.48-10.35,16.26,16.26,0,0,1,2.16-6.1,10.22,10.22,0,0,1,1.8-2.13,3,3,0,0,1,4.23,0,6.46,6.46,0,0,1,1.27,1.34A16.54,16.54,0,0,1,34.75,26a10.06,10.06,0,0,1-1.89,4c-.56.78-1.14,1.55-1.7,2.33a7.64,7.64,0,0,0-1.47,4.78c.09,3.61.06,7.22.24,10.83.2,3.86.58,7.72.9,11.57.17,2.14.39,4.27.56,6.41a2.49,2.49,0,0,1-1.45,2.58A2.62,2.62,0,0,1,27,68.1,2.44,2.44,0,0,1,26.16,66c.34-4,.73-8.09,1.06-12.13C27.47,50.76,27.65,47.66,27.85,44.62Z"/><path class="cls-2" d="M55.62,34.78c.07,4.48,0,8.95.23,13.42.23,5.54.65,11.06,1,16.59a9.06,9.06,0,0,1,.06,1.72,2.61,2.61,0,0,1-5.2-.43c.09-2,.24-4,.37-5.95l.75-11.37c.09-1.45.17-2.9.28-4.35a5.76,5.76,0,0,0-1.49-4.27,9.2,9.2,0,0,1-2.3-6.24,67.27,67.27,0,0,1,2-16.24,20.1,20.1,0,0,1,1.82-4.83,8.31,8.31,0,0,1,.75-1.11,1,1,0,0,1,1.17-.4,1,1,0,0,1,.66,1c0,3.2,0,6.39,0,9.59V34.78Z"/><path class="cls-2" d="M45.2,18.65V11.91a.7.7,0,0,1,0-.29,1.77,1.77,0,0,1,.26-.35c.11.11.29.21.32.34a5.76,5.76,0,0,1,.09.94q.55,7.68,1.1,15.37a11.34,11.34,0,0,1,0,1.16,2.94,2.94,0,0,1-.85,2c-.28.29-.58.57-.87.84A4.59,4.59,0,0,0,43.75,35c-.13,1.59-.18,3.18-.18,4.78,0,5.18.36,10.35.83,15.51q.48,5.31.94,10.62a2.61,2.61,0,0,1-2.55,2.84,2.54,2.54,0,0,1-2.67-2.61c.06-1.57.24-3.13.38-4.69.64-7.27,1.4-14.52,1.33-21.83,0-1,.07-2,0-3.07a13.24,13.24,0,0,0-.31-2.25,4.35,4.35,0,0,0-1.24-2.18c-.25-.25-.49-.49-.75-.72a3.41,3.41,0,0,1-1.14-3q.48-6.48.94-13c.09-1.2.17-2.41.26-3.61a.73.73,0,0,1,.08-.33.36.36,0,0,1,.26-.18.34.34,0,0,1,.24.2,1.73,1.73,0,0,1,.05.51q0,6.6-.11,13.21v.3c0,.35.1.6.5.6s.52-.23.53-.58c0-.81,0-1.62.06-2.42.09-3.73.17-7.45.26-11.18v-.09c0-.24,0-.56.32-.55s.3.33.3.58q0,6.56.1,13.12v.43c0,.51.14.69.51.69s.51-.17.52-.67l.06-7.52c0-2,0-4,0-5.95,0-.28-.07-.68.33-.67s.3.4.31.66q.15,6.56.29,13.12c0,.17,0,.35,0,.52a.48.48,0,0,0,.56.51c.34,0,.47-.22.47-.54,0-1.72,0-3.43,0-5.14V18.65Z"/><path class="cls-2" d="M69.3,46.2a1.45,1.45,0,0,0,.48,1.29,1.54,1.54,0,0,0,1.32.33,1.81,1.81,0,0,0,1.46-2,2.2,2.2,0,0,0-1.7-1.91,2.72,2.72,0,0,0-2.5.75,2.88,2.88,0,0,0-.75,2.51A3.49,3.49,0,0,0,69,49.4a4.11,4.11,0,0,0,5-.47,4.77,4.77,0,0,0,1.11-5.07,5.44,5.44,0,0,0-3.93-3.56A6.94,6.94,0,0,0,62.93,46h0c-.31,1.29-.68,2.56-1.07,3.83-.2.63-.41,1.26-.65,1.88a6.4,6.4,0,0,1-.91,1.76,6.18,6.18,0,0,0,.84-1.78c.22-.63.4-1.26.58-1.9.35-1.27.65-2.56,1-3.85h0a7.21,7.21,0,0,1,8.62-6.11,5.88,5.88,0,0,1,4.29,3.83,5.66,5.66,0,0,1,.22,3,4.79,4.79,0,0,1-1.47,2.61,4.55,4.55,0,0,1-5.61.47,3.79,3.79,0,0,1-1.51-2.57,3.23,3.23,0,0,1,.91-2.8,3,3,0,0,1,2.81-.79,2.44,2.44,0,0,1,1.84,2.17,2,2,0,0,1-1.65,2.17,1.65,1.65,0,0,1-1.37-.4A1.51,1.51,0,0,1,69.3,46.2Z"/><path class="cls-2" d="M72.3,40.46A4.13,4.13,0,0,0,77,37.87a3.21,3.21,0,0,0-.19-2.71,3.06,3.06,0,0,0-2.2-1.51,2.4,2.4,0,0,0-2.34,1.06A2.17,2.17,0,0,0,71.86,36a2,2,0,0,0,.5,1.23,1.89,1.89,0,0,0,1.18.61,1.52,1.52,0,0,0,1.24-.45,1.44,1.44,0,0,0,.45-1.27,1.35,1.35,0,0,0-.93-1,1.38,1.38,0,0,1,1.06,1,1.66,1.66,0,0,1-.4,1.47,1.83,1.83,0,0,1-1.44.6A2.29,2.29,0,0,1,71.42,36a2.7,2.7,0,0,1,.44-1.55,2.89,2.89,0,0,1,2.79-1.31,3.55,3.55,0,0,1,2.53,1.79A3.47,3.47,0,0,1,77.32,38a4.22,4.22,0,0,1-2.06,2.22A4.16,4.16,0,0,1,72.3,40.46Z"/><circle class="cls-2" cx="66.8" cy="36" r="1.62"/><path class="cls-2" d="M13.4,46.2A1.51,1.51,0,0,1,13,47.53a1.66,1.66,0,0,1-1.37.4,2,2,0,0,1-1.65-2.17,2.43,2.43,0,0,1,1.84-2.17,3,3,0,0,1,2.81.79,3.23,3.23,0,0,1,.91,2.8A3.79,3.79,0,0,1,14,49.75a4.55,4.55,0,0,1-5.61-.47A4.79,4.79,0,0,1,6.9,46.67a5.66,5.66,0,0,1,.22-3,5.88,5.88,0,0,1,4.29-3.83A7.21,7.21,0,0,1,20,46h0c.3,1.29.6,2.58.95,3.85.18.64.36,1.27.58,1.9a6.18,6.18,0,0,0,.84,1.78,6.4,6.4,0,0,1-.91-1.76c-.24-.62-.45-1.25-.65-1.88-.39-1.27-.76-2.54-1.07-3.83h0a6.94,6.94,0,0,0-8.26-5.72,5.44,5.44,0,0,0-3.93,3.56,4.77,4.77,0,0,0,1.11,5.07,4.11,4.11,0,0,0,5,.47,3.49,3.49,0,0,0,1.36-2.27,2.88,2.88,0,0,0-.75-2.51,2.72,2.72,0,0,0-2.5-.75,2.19,2.19,0,0,0-1.7,1.91,1.81,1.81,0,0,0,1.46,2,1.54,1.54,0,0,0,1.32-.33A1.48,1.48,0,0,0,13.4,46.2Z"/><path class="cls-2" d="M10.4,40.46a4.16,4.16,0,0,1-3-.24A4.28,4.28,0,0,1,5.37,38a3.51,3.51,0,0,1,.15-3.06,3.55,3.55,0,0,1,2.53-1.79,2.89,2.89,0,0,1,2.79,1.31A2.7,2.7,0,0,1,11.28,36a2.29,2.29,0,0,1-2.1,2.13,1.81,1.81,0,0,1-1.44-.6,1.66,1.66,0,0,1-.4-1.47,1.38,1.38,0,0,1,1.06-1,1.35,1.35,0,0,0-.93,1,1.44,1.44,0,0,0,.45,1.27,1.52,1.52,0,0,0,1.24.45,1.89,1.89,0,0,0,1.18-.61,2,2,0,0,0,.5-1.23,2.17,2.17,0,0,0-.38-1.27,2.4,2.4,0,0,0-2.34-1.06,3,3,0,0,0-2.2,1.51,3.21,3.21,0,0,0-.19,2.71A4.13,4.13,0,0,0,10.4,40.46Z"/><circle class="cls-2" cx="15.9" cy="36" r="1.62"/></svg>