<svg id="Calque_1" data-name="Calque 1" xmlns="http://www.w3.org/2000/svg" xmlns:xlink="http://www.w3.org/1999/xlink" viewBox="0 0 81 80"><defs><style>.cls-1{fill:none;}.cls-2{fill:#829938;}.cls-3{clip-path:url(#clip-path);}.cls-4{fill:#e42d3b;}.cls-4,.cls-5,.cls-6{fill-rule:evenodd;}.cls-5{fill:#fff;}.cls-6{fill:#24397a;}</style><clipPath id="clip-path"><path class="cls-1" d="M40.37,3.6A36.48,36.48,0,1,0,76.85,40.08,36.48,36.48,0,0,0,40.37,3.6Z"/></clipPath></defs><title>Pictos_TOAST_2020</title><path class="cls-2" d="M40.6,79.68A39.6,39.6,0,1,0,1,40.08a39.6,39.6,0,0,0,39.6,39.6"/><g class="cls-3"><path class="cls-4" d="M56.2,1H95.68V79.76H56.2Z"/><path class="cls-5" d="M-20.71,79.85a4.22,4.22,0,0,1-.91-.19l45.17,0a8,8,0,0,0,.22-1.34q0-38.7,0-77.39H56.92V79.66H96.39c0,.07-.06.19-.1.19-.27,0-.54,0-.82,0"/><path class="cls-6" d="M23.77,79.64l-42.2,0V.91H23.8V78.32C23.8,78.76,23.78,79.2,23.77,79.64Z"/></g></svg>