<svg id="Calque_1" data-name="Calque 1" xmlns="http://www.w3.org/2000/svg" viewBox="0 0 81 80"><defs><style>.cls-1{fill:#fddaad;}.cls-2{fill:#c46322;}.cls-3{fill:#b65c20;}.cls-4{fill:#febe6b;}.cls-5{fill:#ac5114;}.cls-6{fill:#974712;}.cls-7{fill:#ecb163;}.cls-8{fill:#da9741;}.cls-9{fill:#e49631;}.cls-10{fill:#d48b2e;}.cls-11{fill:#c8842b;}.cls-12{fill:#b2581a;}.cls-13{fill:#a55218;}.cls-14{fill:#8c4210;}.cls-15{fill:#a04b12;}</style></defs><title>Pictos_TOAST_2020</title><circle class="cls-1" cx="40.57" cy="39.92" r="39.72"/><path class="cls-2" d="M15.46,25.34a11.05,11.05,0,0,0-3.14,5.09,17.73,17.73,0,0,0-.7,3.61,22.38,22.38,0,0,0-.06,4.48A13.54,13.54,0,0,0,14,45.1a23.88,23.88,0,0,0,5.85,5.8c1.72,1.27,3.5,2.48,5.26,3.71,0,0,.1,0,.16,0,.26.07.49.29.79.14.1-.22-.07-.35-.17-.5a7.75,7.75,0,0,0-1-1.12,37.66,37.66,0,0,1-4.4-5,19.86,19.86,0,0,1-3.62-9.4,30.83,30.83,0,0,1,.68-10.83,4.71,4.71,0,0,0,.35-1.41.53.53,0,0,0-.41-.16A2.91,2.91,0,0,1,15.46,25.34Z"/><path class="cls-3" d="M44.76,26.23a5,5,0,0,0-.89-.89,2.23,2.23,0,0,1-2,1,.59.59,0,0,0-.42.13.89.89,0,0,0,.07.6,27.83,27.83,0,0,1,1.06,6.54A27.74,27.74,0,0,1,42.29,40a19.42,19.42,0,0,1-2.83,7.18,32.41,32.41,0,0,1-4.19,5.15c-.49.51-1,1-1.5,1.52-.23.25-.54.48-.49.89.3.17.53-.06.79-.13,2.11-1.41,4.22-2.81,6.22-4.37,1.06-.82,2-1.73,3-2.64.66-.3,1-1,1.43-1.45a13.12,13.12,0,0,0,1.05-1.51,9,9,0,0,0,.5-.85,13.23,13.23,0,0,0,1.58-5c0-.09,0-.17.07-.27a6.33,6.33,0,0,0,0-.87,25.49,25.49,0,0,0-.14-4.19,19.2,19.2,0,0,0-1.11-4.29,12,12,0,0,0-1.49-2.58C45.1,26.45,45,26.27,44.76,26.23Z"/><path class="cls-4" d="M15.46,25.34c.37.94,1.23,1,2,1.12a1.83,1.83,0,0,0,.33,0,.92.92,0,0,1,1,.57,3.91,3.91,0,0,0,2.54,1.07A6.6,6.6,0,0,0,24.44,28a.88.88,0,0,1,1.14.07,10.8,10.8,0,0,0,8.17,0,3.24,3.24,0,0,1,.91-.35.94.94,0,0,0,0-.77,8,8,0,0,0-4.07-5.4,3.39,3.39,0,0,0-1.06-.35,25,25,0,0,0-9.79,1.46A11.49,11.49,0,0,0,15.46,25.34Z"/><path class="cls-5" d="M68.3,39.53c-.26-1.6-.48-3.22-.78-4.82A24.32,24.32,0,0,0,66,29.31a13.45,13.45,0,0,0-2.88-4.19,12.85,12.85,0,0,0-3.89-2.47,17.89,17.89,0,0,0-3.7-1.16,9.83,9.83,0,0,0-5.32.37,1,1,0,0,0,0,.65c.13.56-.17,1-.2,1.58.28.25.64.16,1,.21a24.48,24.48,0,0,1,5.76,1.9,18.17,18.17,0,0,1,6,4.16A17.58,17.58,0,0,1,65.79,35c.75,1.58,1.31,3.23,1.93,4.87.08.19.07.46.37.5C68.32,40.11,68.18,39.79,68.3,39.53Z"/><path class="cls-6" d="M45.67,44.6a19.31,19.31,0,0,1-2.37,3,15.72,15.72,0,0,0,7,3.38,13.46,13.46,0,0,0,7.3-.95,49.51,49.51,0,0,0,6.88-3.61l.66-.37c.08-.22.51-.29.26-.64a1.46,1.46,0,0,0-.87.16,36.61,36.61,0,0,1-6.17,1.7,17.06,17.06,0,0,1-10.14-1.52c-.69-.33-1.38-.67-2-1.05A.68.68,0,0,0,45.67,44.6Z"/><path class="cls-7" d="M29.56,21.19A8.07,8.07,0,0,1,34,25.38a5.58,5.58,0,0,1,.6,2.31.27.27,0,0,0,.15.21l.17.07a8,8,0,0,0,4.69-.42,2.22,2.22,0,0,0,.87-.61c.21-.41.6-.43,1-.46a3.27,3.27,0,0,0,1.77-.34c.3-.19.61-.38.6-.8A11.06,11.06,0,0,0,40.44,23a19,19,0,0,0-5-1.48A26,26,0,0,0,29.56,21.19Z"/><path class="cls-8" d="M50.08,24.1a2.4,2.4,0,0,0,.1-2.24,11.62,11.62,0,0,0-5.42,4.37,13.22,13.22,0,0,1,2.83,6.91.69.69,0,0,0,.1.19c.19-.06.25-.22.31-.37a7.15,7.15,0,0,0,.52-2.58.87.87,0,0,1,.43-.91,5,5,0,0,0,1.24-4.41C49.94,24.77,50.05,24.43,50.08,24.1Z"/><path class="cls-9" d="M26.06,54.75c-.27,0-.52-.18-.8-.11a28.68,28.68,0,0,1,3.38,3,5.91,5.91,0,0,0,.92,1.08.57.57,0,0,0,.32-.36c.37-.89.71-1.77,1-2.67a.42.42,0,0,0,0-.47,6.91,6.91,0,0,0-.91,0h-.65A6.64,6.64,0,0,1,28.16,55H28A17.79,17.79,0,0,0,26.06,54.75Z"/><path class="cls-9" d="M68.3,39.53a1.39,1.39,0,0,0-.22.79.46.46,0,0,0-.24.36,15.65,15.65,0,0,1-.67,2,2.17,2.17,0,0,1-.24.54c-.13.26-.42.5-.15.83a5.81,5.81,0,0,0,2.87.11c.07-.25-.09-.43-.19-.62A13.1,13.1,0,0,1,68.3,39.53Z"/><path class="cls-10" d="M30.9,55.2a36.53,36.53,0,0,1-1.34,3.47c.13,0,.28.06.36-.08,1-1.68,2.67-2.74,4.15-4-.28-.07-.53.12-.8.11a12.67,12.67,0,0,0-1.83.29h-.17a1,1,0,0,0-.24.05A.32.32,0,0,0,30.9,55.2Z"/><path class="cls-11" d="M69.65,44.16a19.05,19.05,0,0,1-2.92-.23.09.09,0,0,0-.12,0,1.92,1.92,0,0,0-.18.22l-.14.18c-.24.41-.66.72-.78,1.21-.09.2-.38.29-.34.57.88-.46,1.77-.89,2.69-1.26.51-.21,1.06-.26,1.58-.43C69.58,44.35,69.7,44.34,69.65,44.16Z"/><path class="cls-12" d="M26.06,54.75a7.27,7.27,0,0,0,1.91.44c.1-.32-.14-.49-.3-.68-.89-1-1.87-1.95-2.8-2.93A33.86,33.86,0,0,1,21,46.88a18.86,18.86,0,0,1-3.09-8.83,28.51,28.51,0,0,1,.92-10.64,1.68,1.68,0,0,0,.07-.5c-.22-.58-.44-.67-1-.43a18,18,0,0,0-1,4.35,35.31,35.31,0,0,0-.32,5.53,21.81,21.81,0,0,0,1.79,8.26,25.89,25.89,0,0,0,4.34,6.43C23.73,52.32,25.07,53.37,26.06,54.75Z"/><path class="cls-5" d="M67.06,43.25l.23-.45a1.87,1.87,0,0,0-.24-.38,45.86,45.86,0,0,0-6.55-6.14,44,44,0,0,0-6.83-3.91c-1.57-.72-3.13-1.45-4.76-2-.17-.06-.34-.2-.53-.06a8,8,0,0,1-.69,3,43,43,0,0,1,.12,4.4,3.31,3.31,0,0,0,1,.68A49.73,49.73,0,0,0,57,41.88a30.63,30.63,0,0,0,6.23,1.2c1.08.1,2.17.16,3.24.29A.81.81,0,0,0,67.06,43.25Z"/><path class="cls-6" d="M66.41,44.27l.11-.11a1.5,1.5,0,0,0-1-.27A42,42,0,0,1,58.73,43a35.09,35.09,0,0,1-6.47-2.23l-.16-.08c-1.1-.46-2.17-1-3.23-1.53-.37-.18-.69-.54-1.17-.4a12.08,12.08,0,0,1-1.31,4.52l-.27.56a1,1,0,0,0,.46.39,19.72,19.72,0,0,0,7.72,2.65,17.84,17.84,0,0,0,6.13-.61c1.84-.48,3.61-1.17,5.43-1.7A1.44,1.44,0,0,0,66.41,44.27Z"/><path class="cls-13" d="M31.36,55.19a7.27,7.27,0,0,0,1.91-.44,18,18,0,0,1,2.18-2.35A27.71,27.71,0,0,0,41,44.66a19.57,19.57,0,0,0,1.61-5.8,24.26,24.26,0,0,0,.21-4.08,26.61,26.61,0,0,0-1.34-8.3.65.65,0,0,0-1,.31c-.14.23,0,.44,0,.65a23.76,23.76,0,0,1,1,5.35c.09,1,.08,2.06.09,3.09a19.77,19.77,0,0,1-5.21,13.6c-1.17,1.34-2.39,2.64-3.67,3.88-.43.42-.77.92-1.2,1.34C31.36,54.82,31.21,55,31.36,55.19Z"/><path class="cls-14" d="M66.41,44.27a43,43,0,0,0-4.18,1.29,21.21,21.21,0,0,1-6.75,1.19,16.18,16.18,0,0,1-6.6-1.56c-.93-.43-1.84-.91-2.76-1.37l-.45.78a24,24,0,0,0,6.17,2.62,17.67,17.67,0,0,0,7.66.05,49.09,49.09,0,0,0,5.31-1.59,1.8,1.8,0,0,1,.7-.17A5.25,5.25,0,0,0,66.41,44.27Z"/><path class="cls-15" d="M67.06,43.25c-2.27-.22-4.55-.32-6.81-.74a36.09,36.09,0,0,1-8.47-2.84c-1.18-.55-2.37-1.11-3.51-1.76a3.66,3.66,0,0,0-.46-.18v.9c1.4.78,2.85,1.45,4.29,2.14h0A37.24,37.24,0,0,0,58.51,43a38.7,38.7,0,0,0,6,.87c.54,0,1.08.11,1.62.15a.7.7,0,0,0,.53-.09h.1C66.75,43.66,67,43.48,67.06,43.25Z"/><path class="cls-14" d="M52.09,40.77a45.11,45.11,0,0,0-4.29-2.14l-.1.11,3.71,1.81A1.28,1.28,0,0,0,52.09,40.77Z"/><path class="cls-2" d="M29.32,55.3H30a1,1,0,0,0,.28-.41,69.37,69.37,0,0,0,3-8.9,41.17,41.17,0,0,0,.85-5.83,51.78,51.78,0,0,0,.21-5.28c-.09-2.17-.09-4.34-.34-6.5a.59.59,0,0,0-.16-.46c-.8.17-1.56.45-2.37.6A10.11,10.11,0,0,1,25.88,28c-.12,0-.25-.06-.38-.09a2,2,0,0,0-.24,1.19c-.05.8-.16,1.6-.16,2.4,0,1.62-.16,3.22-.11,4.84A43.06,43.06,0,0,0,27.23,50c.58,1.61,1.22,3.19,1.79,4.8A1,1,0,0,0,29.32,55.3Z"/><path class="cls-2" d="M18.86,26.91a10,10,0,0,0-.79,2.78A30.86,30.86,0,0,0,17.62,37a19.14,19.14,0,0,0,1.62,7,24.48,24.48,0,0,0,4.64,6.68c1.23,1.34,2.59,2.55,3.75,4a2.16,2.16,0,0,1,.34.51h.12c.19-.27,0-.51-.06-.75-.78-2.09-1.61-4.16-2.22-6.31a40.39,40.39,0,0,1-1.4-8.47c-.18-2.6-.09-5.2-.08-7.81,0-1.15.11-2.32.21-3.47a.68.68,0,0,0-.06-.54,7,7,0,0,1-5.18-.59A2.87,2.87,0,0,1,18.86,26.91Z"/><path class="cls-12" d="M24.48,27.84a6.18,6.18,0,0,0-.2,1.76,85.76,85.76,0,0,0-.11,9.21A40.18,40.18,0,0,0,27.1,52.46a18.51,18.51,0,0,1,1,2.73,5.63,5.63,0,0,0,1.23.11c-.66-2.17-1.62-4.22-2.29-6.38a36.51,36.51,0,0,1-1.43-6.54c-.19-1.5-.26-3-.36-4.51s-.1-2.84-.06-4.26c0-1.9.21-3.79.32-5.69C25.19,27.49,24.85,27.57,24.48,27.84Z"/><path class="cls-12" d="M33.83,27.92c.07,1.81.22,3.61.27,5.42,0,1.08.09,2.17.06,3.25a43,43,0,0,1-2.35,13.82C31.21,52,30.5,53.63,30,55.3a1.69,1.69,0,0,0,.89-.1H31a2.33,2.33,0,0,0,.46-.9,64.94,64.94,0,0,0,2.87-8.86,44.71,44.71,0,0,0,.67-4.6,60,60,0,0,0,.2-7.46c0-1.74-.14-3.48-.34-5.2a.64.64,0,0,0-.14-.36l-.12-.12C34.33,27.67,34,27.6,33.83,27.92Z"/><path class="cls-15" d="M48.38,30.29A52.76,52.76,0,0,1,60,36.1a30.41,30.41,0,0,1,5.66,5.09c.5.57,1.09,1.07,1.64,1.61a16.63,16.63,0,0,0,.79-2.48C67.52,38.88,67,37.43,66.4,36A17.19,17.19,0,0,0,58,26.67a25.21,25.21,0,0,0-7-2.52c-.3,0-.6,0-.9,0a.58.58,0,0,0,0,.91,5.7,5.7,0,0,0,1.47.33,23.86,23.86,0,0,1,4.36,1.49,20.07,20.07,0,0,1,4.33,2.5,17.11,17.11,0,0,1,5.26,7.25c.63,1.57,1.17,3.17,1.83,4.79a34.55,34.55,0,0,0-10.6-8.54,64.18,64.18,0,0,0-7.22-3.28,1.9,1.9,0,0,0-.66-.14A.74.74,0,0,0,48.38,30.29Z"/><path class="cls-3" d="M31.36,55.19a6.41,6.41,0,0,1,1.31-1.57,55.13,55.13,0,0,0,5.17-5.75,19.54,19.54,0,0,0,3.57-8.25,27.65,27.65,0,0,0,.29-6.09,22.84,22.84,0,0,0-1.22-6.74,5.11,5.11,0,0,1-3.11,1.15,10.61,10.61,0,0,1-2.52-.11,10.24,10.24,0,0,0,.12,2c.2,2.49.17,5,.16,7.47a48.32,48.32,0,0,1-.43,5.5,43.67,43.67,0,0,1-3,10.65l-.48,1.26c-.05.16-.15.31,0,.48Z"/><path class="cls-13" d="M31.24,55.19a22.46,22.46,0,0,1,1.12-3.1,44.43,44.43,0,0,0,2.29-8.4,67.14,67.14,0,0,0,.51-11.85,24.62,24.62,0,0,0-.31-4l-.11,0c.11,1.58.25,3.16.32,4.74,0,1.14,0,2.29,0,3.44a40.3,40.3,0,0,1-1.35,11.3c-.7,2.52-1.63,5-2.57,7.41a1,1,0,0,0-.13.49Z"/><path class="cls-5" d="M48.82,29.41c2.37.93,4.71,1.94,7,3.09a35.85,35.85,0,0,1,7,4.57,27.29,27.29,0,0,1,3.58,3.55c.3.36.64.69,1,1l.13-.08c-.22-.58-.44-1.15-.65-1.72a42.78,42.78,0,0,0-2.14-5.25,16.09,16.09,0,0,0-6.67-6.85,25.41,25.41,0,0,0-6.62-2.57A4.58,4.58,0,0,0,50.05,25,3.68,3.68,0,0,1,50,27.26,4.93,4.93,0,0,1,48.82,29.41Z"/><path class="cls-14" d="M66.63,43.93c-1.84-.06-3.67-.31-5.5-.53A31.75,31.75,0,0,1,53,41.11c-.31-.12-.58-.36-.94-.34a8.74,8.74,0,0,0,2.09.94,31.51,31.51,0,0,0,7.45,2c1.34.19,2.71.24,4.06.36.28,0,.55.08.83.12C66.61,44.11,66.62,44,66.63,43.93Z"/></svg>