<svg id="Calque_1" data-name="Calque 1" xmlns="http://www.w3.org/2000/svg" viewBox="0 0 81 80"><defs><style>.cls-1{fill:#ffeac8;}.cls-2{fill:#f3b13b;}</style></defs><title>Pictos_TOAST_2020</title><circle class="cls-1" cx="41.04" cy="39.6" r="40"/><path class="cls-2" d="M63.16,57.94a41.66,41.66,0,0,0-7.28-2.87S56,55,56,55V49.45c0,.09.1.18.2.25.82.67,2,.55,3.23-1.13s1-4.6,1-4.6-2.74.51-4,2.19c-.22.29-.47.56-.47.81V43.36c0,.09.1.17.2.25.82.66,2,.54,3.23-1.14s1-4.59,1-4.59-2.74.51-4,2.19c-.22.28-.47.55-.47.81V36.75c0,.16.29.29.51.39,1,.41,2,0,2.82-2s-.11-4.72-.11-4.72a8,8,0,0,0-3.22,3v-2c.88-.19,1.47-1.11,1.47-3.09,0-2.25-1.92-4.54-1.92-4.54s-1.93,2.29-1.93,4.54c0,2,.61,2.9,1.49,3.09v2a8,8,0,0,0-3.24-3s-.93,2.76-.15,4.72,1.87,2.4,2.84,2c.22-.1.55-.23.55-.39v4.34c0-.32-.32-.66-.6-1-1.26-1.68-4-2.19-4-2.19s-.21,2.91,1,4.59,2.42,1.8,3.24,1.14c.14-.11.34-.24.34-.39v4c0-.31-.32-.65-.6-1-1.26-1.68-4-2.19-4-2.19s-.21,2.92,1,4.6,2.42,1.8,3.24,1.13c.14-.11.34-.24.34-.38v5.55a55.83,55.83,0,0,0-14.88-1.94H40V43.66c0,.09.18.18.27.25.83.67,2,.55,3.27-1.13s1.06-4.6,1.06-4.6-2.8.51-4.07,2.19c-.21.29-.24.56-.53.81V37.57c0,.09.18.17.27.25.83.66,2,.54,3.27-1.14s1.06-4.59,1.06-4.59-2.8.51-4.07,2.19c-.21.28-.24.55-.53.81V31c.29.16.37.29.59.39,1,.41,2.07,0,2.86-2s-.17-4.72-.17-4.72A8,8,0,0,0,40,27.69v-2c.88-.19,1.55-1.11,1.55-3.1a8.58,8.58,0,0,0-1.89-4.53,8.69,8.69,0,0,0-1.84,4.53c0,2,.71,2.91,1.59,3.1v2a8,8,0,0,0-3.32-3.05s-1,2.76-.18,4.72,1.92,2.4,2.89,2c.22-.1.31-.23.61-.39V35.3a10.56,10.56,0,0,1-.67-1c-1.27-1.68-4.08-2.19-4.08-2.19s-.22,2.91,1,4.59,2.48,1.8,3.31,1.14c.14-.11.1-.24.4-.39v4a9.46,9.46,0,0,1-.67-1c-1.27-1.68-4.08-2.19-4.08-2.19s-.22,2.92,1,4.6,2.48,1.8,3.31,1.13c.14-.11.1-.24.4-.38v9.41a54.05,54.05,0,0,0-15,2.23V49.45c0,.09.1.18.2.25.82.67,2,.55,3.23-1.13s1-4.6,1-4.6-2.74.51-4,2.19c-.22.29-.47.56-.47.81V43.36c0,.09.1.17.2.25.82.66,2,.54,3.23-1.14s1-4.59,1-4.59-2.74.51-4,2.19c-.22.28-.47.55-.47.81V36.75c0,.16.29.29.51.39,1,.41,2,0,2.82-2s-.11-4.72-.11-4.72a8,8,0,0,0-3.22,3v-2c.88-.19,1.47-1.11,1.47-3.09,0-2.25-1.92-4.54-1.92-4.54S22,26.18,22,28.43c0,2,.61,2.9,1.49,3.09v2a8,8,0,0,0-3.24-3s-.93,2.76-.15,4.72,1.87,2.4,2.84,2c.22-.1.55-.23.55-.39v4.34c0-.32-.32-.66-.6-1-1.26-1.68-4-2.19-4-2.19s-.21,2.91,1.06,4.59,2.41,1.8,3.23,1.14c.14-.11.34-.24.34-.39v4c0-.31-.32-.65-.6-1-1.26-1.68-4-2.19-4-2.19s-.21,2.92,1.06,4.6,2.41,1.8,3.23,1.13c.14-.11.34-.24.34-.38v6.07A32.38,32.38,0,0,0,10.2,63c1.74.43,3.79.82,6.06,1.16,6.13-5.45,16.82-9.06,29-9.06a55,55,0,0,1,17.93,2.88"/><path class="cls-2" d="M67.14,61.67a43.06,43.06,0,0,0-19.29-4.22c-10.82,0-20.26,3.4-25.24,8.44,1.47.36,3.18.69,5.09,1,5.16-4.58,14.14-7.62,24.36-7.62a45.94,45.94,0,0,1,15.08,2.43"/><path class="cls-2" d="M55.9,60.89c-9,0-16.78,2.82-20.9,7,1.21.3,2.63.58,4.21.81,4.28-3.79,11.72-6.31,20.18-6.31a38.21,38.21,0,0,1,12.49,2,35.64,35.64,0,0,0-16-3.5"/><path class="cls-2" d="M20.26,29.81c.11,0,.29-.09.29-.2V23.2c0-.11-.18-.21-.29-.21s-.3.1-.3.21v6.41c0,.11.19.2.3.2"/><path class="cls-2" d="M27.63,29.81c.11,0,.3-.09.3-.2V23.2c0-.11-.19-.21-.3-.21s-.29.1-.29.21v6.41c0,.11.18.2.29.2"/><path class="cls-2" d="M23.94,23.13c.11,0,.15-.09.15-.21V16.51c0-.11,0-.2-.15-.2s-.14.09-.14.2v6.41c0,.12,0,.21.14.21"/><path class="cls-2" d="M51.82,29.81c.11,0,.29-.09.29-.2V23.2c0-.11-.18-.21-.29-.21s-.3.1-.3.21v6.41c0,.11.19.2.3.2"/><path class="cls-2" d="M59.19,29.81c.11,0,.3-.09.3-.2V23.2c0-.11-.19-.21-.3-.21s-.29.1-.29.21v6.41c0,.11.18.2.29.2"/><path class="cls-2" d="M55.5,23.13c.11,0,.15-.09.15-.21V16.51c0-.11,0-.2-.15-.2s-.14.09-.14.2v6.41c0,.12,0,.21.14.21"/><path class="cls-2" d="M36,24c.11,0,.15-.09.15-.2V17.41c0-.11,0-.21-.15-.21s-.15.1-.15.21v6.41c0,.11,0,.2.15.2"/><path class="cls-2" d="M43.41,24c.11,0,.15-.09.15-.2V17.41c0-.11,0-.21-.15-.21s-.15.1-.15.21v6.41c0,.11,0,.2.15.2"/><path class="cls-2" d="M39.72,17.34c.11,0,.3-.09.3-.21V10.72c0-.11-.19-.2-.3-.2s-.29.09-.29.2v6.41c0,.12.19.21.29.21"/></svg>