<svg id="Calque_1" data-name="Calque 1" xmlns="http://www.w3.org/2000/svg" viewBox="0 0 81 80"><defs><style>.cls-1{fill:#829938;}.cls-2{fill:#fff;}</style></defs><title>Pictos_TOAST_2020</title><circle class="cls-1" cx="41.12" cy="39.91" r="40"/><path class="cls-2" d="M24.8,42.6a7.08,7.08,0,1,0,7.08,7.08A7.08,7.08,0,0,0,24.8,42.6m0,19.1a12,12,0,1,1,12-12,12,12,0,0,1-12,12"/><path class="cls-2" d="M63.22,48.13a5,5,0,1,0,5,5,5.06,5.06,0,0,0-5-5m0,13.74a8.69,8.69,0,1,1,8.68-8.69,8.7,8.7,0,0,1-8.68,8.69"/><path class="cls-2" d="M35.93,34.18A18.37,18.37,0,0,0,25.28,30.7a15,15,0,0,0-4.62.52l1.78-8.67H36.76c.31,1.83,1,8.38,1.52,13.66a17.63,17.63,0,0,0-2.35-2m31.38,2.58L50.81,32.6l-.13-8.66c0-.47.32-1,1.67-1a1.46,1.46,0,0,0,0-2.92,4.68,4.68,0,0,0-3.47,1.27,4,4,0,0,0-1.12,2.68L47.89,32l-6-1.09-1.55-9h1a2,2,0,0,0,0-4H17.55a2,2,0,0,0,0,4h1.26l-1.23,6.44-.83,4.4A19.74,19.74,0,0,0,10.5,39a2,2,0,0,0,.74,2.33,1.46,1.46,0,0,0,2-.42,19.35,19.35,0,0,1,2.37-3A14.51,14.51,0,0,1,39.17,53H52c0-.18,0-.37,0-.56C52,46.29,57.05,42,63.22,42a11,11,0,0,1,5.45,1.43c.15-6.44-1.36-6.67-1.36-6.67"/></svg>