<svg id="Calque_1" data-name="Calque 1" xmlns="http://www.w3.org/2000/svg" viewBox="0 0 81 80"><defs><style>.cls-1{fill:#fce4a3;}.cls-2{fill:#f5a800;}</style></defs><title>Pictos_TOAST_2020</title><ellipse class="cls-1" cx="39.99" cy="39.97" rx="39.81" ry="40"/><path class="cls-2" d="M32.24,41.65a25,25,0,0,0-3.41,0c-2.27.17-3.17.56-3.28.45s-.81-.48,1-1.43a5.09,5.09,0,0,1,4.63-.16c1.53.61,1.23,1.14,1.1,1.19m4.69,1.49c-1.41-1.93-4.94-5.6-8.67-5C23.49,39,18.08,44,17.82,47.68c-.24,3.29,2.64,7.92,5,9.57,5.24,3.6,11.82,1.47,15-3.82,2.22-3.68,1.52-6.9-.94-10.29"/><path class="cls-2" d="M50.09,43.19a24.84,24.84,0,0,0-2.48,2.19c-1.53,1.59-1.93,2.45-2.08,2.45s-.89.17-.22-1.66a5,5,0,0,1,3.22-3.11c1.5-.56,1.62,0,1.56.13m11.88,5c-.79-4.22-3.45-6.15-7.53-7-2.34-.49-7.41-.85-9.75,2.14-3,3.82-3.74,11.12-1.46,14.07,2,2.6,7.23,4.11,10.11,3.73,6.29-.83,9.77-6.83,8.63-12.92"/><path class="cls-2" d="M37.27,22.52a4.45,4.45,0,0,1,3.93-1.91c1.52,0,1.43.66,1.34.76a21.39,21.39,0,0,0-3,1.25c-1.9,1-2.55,1.74-2.68,1.68s-.85-.17.37-1.78m2.06,16.77C45.5,40.79,50.9,36.45,52,30.36c.78-4.23-1-7-4.51-9.27-2-1.31-6.61-3.48-9.86-1.54-4.16,2.49-7.48,9-6.41,12.6.95,3.16,5.27,6.45,8.1,7.14"/></svg>