<svg id="Calque_1" data-name="Calque 1" xmlns="http://www.w3.org/2000/svg" viewBox="0 0 81 80"><defs><style>.cls-1{fill:#dbe0c6;}.cls-2{fill:#85a0ae;}.cls-3{fill:#7d9c91;}.cls-4{fill:#839794;}</style></defs><title>Pictos_TOAST_2020</title><circle class="cls-1" cx="39.99" cy="40" r="40"/><path class="cls-2" d="M67.9,40.73l0,0v0h0"/><path class="cls-3" d="M58.32,52.24l.06,0-.3.16.24-.14a10.58,10.58,0,0,1-4,.75,19.46,19.46,0,0,0,2.94-.74,6.33,6.33,0,0,0,2.53-1.62,3.47,3.47,0,0,1-1.46,1.61m-.84,4.85a4.6,4.6,0,0,1-2.08,3.82,10.64,10.64,0,0,1-11.64.27,5.53,5.53,0,0,0,2.62-2.34c1.42-2.22,4.08-4.34,6.8-4.49,1.27-.07,2.44.43,3.71.42a7,7,0,0,0,.94-.08,23.55,23.55,0,0,0-.35,2.4m-11.17-2a46.49,46.49,0,0,1,2.11-4.78,9.89,9.89,0,0,1,8-4.68c-.3,0-1.1.62-1.5.74-.59.19-1.22.27-1.82.48a8.69,8.69,0,0,0-3.24,2.25C48.5,50.73,48,52.86,47.22,54.8S45,58.7,42.91,59a7.2,7.2,0,0,0,3.4-3.81M58.89,48.8c-.31.18-.59.78-.9,1-1.78,1.48-4.12,1.92-6.11,3.08l7-4.11m-1.3-1.68a24.35,24.35,0,0,0-2.93,1.94c-1.13.72-2.27,1.43-3.34,2.23a19.3,19.3,0,0,0-3.85,4.76,17.35,17.35,0,0,1,3-4.59,14.2,14.2,0,0,1,2.67-2.1,36.18,36.18,0,0,1,4.44-2.24m-.43-2.28c3.08,3.34,4.9,4.38,5.73,4.71a5.46,5.46,0,0,0,1.94-2.91A21.59,21.59,0,0,1,60.76,43a29.36,29.36,0,0,0,4.11,3.18,6.21,6.21,0,0,0,1.24-1.9,20.49,20.49,0,0,1-2.56-2.06c1,.75,1.9,1.34,2.67,1.81h0a2.61,2.61,0,0,0,1-1.76c-1-.5-1.53-.89-1.53-.89.55.26,1.06.5,1.54.71a2.36,2.36,0,0,0-.32-1.19c-.92-1.2-1.7.13-1.7.13a2.33,2.33,0,0,0-2,.92,2.57,2.57,0,0,0-2.84.73l-.08,0a4,4,0,0,0-3.81,1.48,3.53,3.53,0,0,0-2.27,0c-1.8.52-3.4-.32-5.18.67-2.31,1.28-2.79,3.65-3.13,6.06A12,12,0,0,1,44.18,56c-1.07,1.58-2.93,2.44-3.69,4.26a1,1,0,0,0,0,1,.87.87,0,0,0,.62.29c1.34,2.69,3.23,2,3.23,2,5.78,2.46,11.78-1.58,11.78-1.58,3.49-2.05,2.94-4.28,2.94-4.28a8.21,8.21,0,0,1,.83-3.68,6.28,6.28,0,0,0,2.6-4,20.53,20.53,0,0,1-5.33-5.13"/><path class="cls-4" d="M20.2,19,31.46,52.08l-7-35.14A19,19,0,0,0,20.2,19"/><path class="cls-4" d="M15.71,23.43,31.46,52.08,19,19.89a15,15,0,0,0-3.26,3.54"/><path class="cls-4" d="M13.25,29.44,31.46,52.08,14.91,24.76a17.76,17.76,0,0,0-1.66,4.68"/><path class="cls-4" d="M12.78,33.14A19.69,19.69,0,0,0,13,35.9L31.46,52.08,13,31c-.09.69-.17,1.41-.2,2.16"/><path class="cls-4" d="M32.22,15.74l-.76,36.34L37,16.47a24.29,24.29,0,0,0-4.75-.73"/><path class="cls-4" d="M26,16.5l5.51,35.58-.77-36.33A23.85,23.85,0,0,0,26,16.5"/><path class="cls-4" d="M50.14,33.14c0-.75-.11-1.47-.2-2.17L31.46,52.08,49.93,35.9a20.82,20.82,0,0,0,.21-2.76"/><path class="cls-4" d="M31.46,52.08,13.25,37.45c.47,2.1,1.38,4.4,3.17,5.48l5.68,4v4.29s0,1.91,2,1.22a19.14,19.14,0,0,1,5.91,0,3.46,3.46,0,0,0,1.46.39,3.41,3.41,0,0,0,1.45-.39,19.14,19.14,0,0,1,5.91,0c2,.69,2-1.22,2-1.22V46.94l5.68-4c1.8-1.08,2.71-3.38,3.17-5.48Z"/><path class="cls-4" d="M48,24.74,31.46,52.08,49.67,29.42A17.41,17.41,0,0,0,48,24.74"/><path class="cls-4" d="M44,19.85,31.46,52.08,47.22,23.4A15.52,15.52,0,0,0,44,19.85"/><path class="cls-4" d="M38.42,16.91l-7,35.17L42.73,19a18.58,18.58,0,0,0-4.31-2.06"/></svg>