<svg id="Calque_1" data-name="Calque 1" xmlns="http://www.w3.org/2000/svg" viewBox="0 0 81 80"><defs><style>.cls-1{fill:#fed792;}.cls-2{fill:#eda300;}.cls-3{fill:#db9100;}.cls-4{fill:#f0ad1a;}</style></defs><title>Pictos_TOAST_2020</title><circle class="cls-1" cx="40.59" cy="39.87" r="40"/><path class="cls-2" d="M44,68.17A8.07,8.07,0,0,0,52,60V38.69A8,8,0,0,0,46.37,31,7.89,7.89,0,0,0,44,30.64H37.28a8.09,8.09,0,0,0-8.12,8V60a8.15,8.15,0,0,0,5.55,7.7Z"/><path class="cls-3" d="M43.11,23.18,41.49,12.64a.46.46,0,0,0-.47-.38h-.8a.45.45,0,0,0-.46.38L38.14,23.19a.54.54,0,0,0,.11.41.49.49,0,0,0,.36.2h4a.55.55,0,0,0,.36-.2.57.57,0,0,0,.11-.42"/><path class="cls-2" d="M36.47,30.55a6.07,6.07,0,0,1-4.71-1.69c-1.36-1.5-1.87-4-1.51-7.46.52-4.9,3.34-7,5.61-8a11.85,11.85,0,0,1,4.82-.84l-.08,1.07a10.9,10.9,0,0,0-4.37.77c-2.89,1.2-4.54,3.58-4.91,7.08-.34,3.13.08,5.36,1.23,6.63s3.08,1.35,4.2,1.34H37v1.07h-.5"/><rect class="cls-2" x="35.31" y="21.31" width="10.44" height="8.78" rx="2.22"/><path class="cls-4" d="M35,37.27a3.11,3.11,0,0,0-3.11,3.11V57.6a3.11,3.11,0,0,0,6.22,0V40.38A3.11,3.11,0,0,0,35,37.27"/><path class="cls-4" d="M38.23,22.28h0a1.57,1.57,0,0,0-1.57,1.57v3.28a1.57,1.57,0,0,0,1.57,1.57h0a1.57,1.57,0,0,0,1.57-1.57V23.85a1.57,1.57,0,0,0-1.57-1.57"/><path class="cls-3" d="M46.23,30a1,1,0,0,1-1,1H35.83a1,1,0,1,1,0-2h9.39a1,1,0,0,1,1,1"/><rect class="cls-2" x="38.97" y="11.57" width="3.18" height="3.18" rx="1.02"/></svg>