<svg id="Calque_1" data-name="Calque 1" xmlns="http://www.w3.org/2000/svg" viewBox="0 0 81 80"><defs><style>.cls-1{fill:#ffe4cd;}.cls-2{fill:#febe85;}.cls-3{fill:#fdc99a;}.cls-4{fill:#f2ede8;}.cls-5{fill:#fcfaf7;}.cls-6{fill:#ffc600;}.cls-7{fill:#f8df8d;}</style></defs><title>Pictos_TOAST_2020</title><circle class="cls-1" cx="40.92" cy="39.94" r="40"/><path class="cls-2" d="M41.93,55.45s0-.06.06-.08c.24-.32.47-.64.69-1l.08-.12.11-.18c.17-.27.34-.56.49-.85a.41.41,0,0,0,0-.09l.12-.22c0-.06,0-.11.08-.16.12-.24.23-.48.34-.72l.09-.19.15-.36s0,0,0-.07c.1-.24.19-.47.28-.71l0,0,.21-.59v0c.06-.18.11-.35.16-.53s0-.1.05-.14c.06-.23.13-.46.19-.7l0-.13.09-.37a.83.83,0,0,1,0-.15c.06-.27.12-.54.17-.81l0-.18q.12-.66.21-1.32a1,1,0,0,1,0-.17c.05-.44.09-.89.12-1.32v0h0c0-.72.07-1.44,0-2.14-.29-11.57-7.67-23.11-15.5-23.14-2.91,0-5.79,1.62-8.26,4.31h0l-.09.1q-.29.32-.57.66l-.18.21c-.17.21-.35.43-.52.66-.05.07-.1.13-.15.21-.21.27-.4.55-.6.83l0,.06c-.22.32-.43.65-.63,1l-.09.14c-.16.28-.33.56-.49.85l-.15.28c-.14.25-.27.51-.4.77l-.15.29c-.15.29-.29.59-.42.89l-.09.19c-.17.37-.33.74-.48,1.12l-.06.15c-.13.33-.25.65-.37,1l-.12.34-.28.84c0,.12-.08.24-.11.37-.1.3-.18.6-.27.9,0,.1-.05.19-.08.29-.06.25-.13.5-.19.75a1.17,1.17,0,0,1,0,.2l-.06.27s0,.07,0,.1c-.08.37-.16.74-.23,1.12,0,.08,0,.16-.05.25l0,.21c-.05.26-.09.53-.13.79L15,39.4c0,.16,0,.33-.07.5a1.5,1.5,0,0,1,0,.22c0,.06,0,.12,0,.18s0,.24,0,.35q-.06.63-.09,1.26a20.77,20.77,0,0,0,.69,6.47,19.28,19.28,0,0,0,.75,2.3c.1.26.21.52.32.78A15.37,15.37,0,0,0,25.09,60a15,15,0,0,0,5.16.91c.54,0,1.06,0,1.57-.07l.29,0,.15,0c.44-.05.87-.11,1.28-.19l.23-.05.11,0,.23-.05c.32-.07.62-.15.92-.24l.15,0,.38-.13.23-.09a6.62,6.62,0,0,0,.62-.24l.25-.1.46-.22.19-.09.49-.26.11-.06.64-.4.1-.07.24-.16.17-.12c.26-.19.51-.38.75-.58l0,0L40,57.5l.17-.16c.24-.21.47-.44.69-.67a.57.57,0,0,0,.11-.11,11.88,11.88,0,0,0,.87-1Z"/><path class="cls-3" d="M31.1,25.59c-.63-1.31,1.68-5,4.41-3.13A10.74,10.74,0,0,1,40,28c1.19,2.57,1.73,6.61,1.14,7.14C39,37,37.93,31.89,35.65,29.71c-2-1.94-3.87-2.72-4.55-4.12"/><path class="cls-4" d="M59.3,25c-5.11-1.68-12,2.74-16.5,9.49l.06-.1-.18.28c-.12.18-.23.36-.34.54s-.41.66-.6,1l-.32.57c-.19.36-.38.73-.56,1.1l-.25.51c-.25.54-.49,1.09-.71,1.65a18.73,18.73,0,0,0-1.2,7A17.39,17.39,0,0,0,39,50a15,15,0,0,0,.84,2.85,12.38,12.38,0,0,0,7.9,7.31h0c.37.12.73.22,1.08.31l.33.08.8.16.31,0c.35.05.69.09,1,.11h.14c.29,0,.59,0,.88,0h.3c.25,0,.49,0,.73,0l.26,0a9.28,9.28,0,0,0,.92-.15l.17,0,.74-.19.27-.08c.23-.07.45-.15.68-.24l.19-.06.82-.37.16-.09c.22-.11.44-.22.65-.35l.21-.12.65-.42.11-.08c.24-.17.48-.36.72-.55l.14-.11.56-.49.16-.15c.21-.2.42-.41.62-.62l0,0c.21-.22.42-.46.62-.69l.11-.14.48-.6.07-.09h0A20.84,20.84,0,0,0,66,48.64C68.9,38.86,65.85,27.18,59.3,25Z"/><path class="cls-4" d="M59.55,25.16l-.27-.09c-3-1-6.89.14-10.65,3.1a28.67,28.67,0,0,0-8.69,11.92,17.85,17.85,0,0,0,.14,13.24A12.38,12.38,0,0,0,47.2,60h0l.56.2a12.38,12.38,0,0,0,10-.6c3.71-1.94,6.79-6,8.24-10.92a27.32,27.32,0,0,0,.25-14.46c-1.23-4.61-3.65-7.89-6.65-9M47.17,60h0A12.44,12.44,0,0,1,40,53.36a17.91,17.91,0,0,1-.14-13.3,28.86,28.86,0,0,1,8.71-12c3.79-3,7.7-4.11,10.74-3.11l.27.09c3,1.13,5.46,4.43,6.7,9.06A27.6,27.6,0,0,1,66,48.65c-1.46,4.92-4.56,9-8.29,11a12.45,12.45,0,0,1-10,.6c-.2-.06-.39-.13-.57-.2"/><path class="cls-5" d="M50.28,31.17c-.58.26-.52-1.44,1.06-2.8a8,8,0,0,1,7.75-1.22,10.16,10.16,0,0,1,5.51,6.39c1.79,5.4,1.51,12,.31,12.24s.16-4.89-2.76-11.23C60.5,31,55.68,28.77,50.28,31.17"/><path class="cls-6" d="M61.13,42.16a9.1,9.1,0,0,0-5-4.59c-.12,0-.23-.09-.35-.12a9.14,9.14,0,0,0-6.06,17.24l.35.12A9.14,9.14,0,0,0,61.13,42.16Z"/><path class="cls-7" d="M59.22,48.35c-1.23,3.75-5.73,2.15-4.5-1.59s-3.79-8.63,0-7.4a7.12,7.12,0,0,1,4.55,9"/></svg>