<svg id="Calque_1" data-name="Calque 1" xmlns="http://www.w3.org/2000/svg" viewBox="0 0 81 80"><defs><style>.cls-1{fill:#829938;}.cls-2{fill:#fff;}</style></defs><title>Pictos_TOAST_2020</title><path class="cls-1" d="M40.35,79.8A39.66,39.66,0,1,0,.69,40.15,39.65,39.65,0,0,0,40.35,79.8"/><path class="cls-2" d="M33.14,61.8l-.06,0c-2.12-2.3-3.29-4-3.35-6.64,0-9.24,7.76-18.1,11.65-19.58,2-.75,5.44,1.15,5.44,1.15-.44-.88-.15-3.41-.15-3.41a15.1,15.1,0,0,0,5.77-2.51,21.59,21.59,0,0,0,3.27-2.5c3.78-3.48,4.3-8,3.77-9.19-1.75-3.58-7.08-4.43-13-3.63a30.34,30.34,0,0,0-8.76,3.48c-2.22-.77-5.63-.66-6.32-.11s-3.56,5.37-3.94,10.54c-4.66,8.16-5.38,18.73-.61,29.12h0C19.76,55.59,11.89,54.75,3.16,55l1.1,2.73a41.17,41.17,0,0,1,27.67,5.93,31.38,31.38,0,0,0,17.15,4.81c.48,0,.94,0,1.39,0,4.93-.18,19.19-4.21,23.76-7.05L75.75,58C56,67.83,42.79,68.07,33.14,61.8Zm19.7-44.75a1.08,1.08,0,0,1,1.5-.15,1,1,0,0,1,.13,1.46,1.08,1.08,0,0,1-1.49.15A1,1,0,0,1,52.84,17.05Zm-9.32,6.18c.77,3.17,3.53,5.39,6,5.27C45.14,28.94,43.39,25.65,43.52,23.23Z"/></svg>