<svg id="Calque_1" data-name="Calque 1" xmlns="http://www.w3.org/2000/svg" viewBox="0 0 81 80"><defs><style>.cls-1{fill:#d8dfe1;}.cls-2{fill:#97a3ae;}.cls-3{fill:#758592;}.cls-4{fill:#fff;}.cls-5{fill:#120000;}</style></defs><title>Pictos_TOAST_2020</title><circle class="cls-1" cx="40.93" cy="40" r="40"/><path class="cls-2" d="M36,31.59a11.47,11.47,0,0,1-.48-5.06,3.46,3.46,0,0,1,4.24-3A45.59,45.59,0,0,1,52.89,29Z"/><path class="cls-2" d="M37.09,48.41a11.47,11.47,0,0,0-.49,5.06,3.47,3.47,0,0,0,4.25,3A45.53,45.53,0,0,0,54,51Z"/><path class="cls-2" d="M8.15,49.27c7-.09,12.4-3.36,14.94-8.63-3.25-5.8-8.25-8.89-14.94-8.63,1.6,3.85,4.19,7.44,6.42,8.63a17.5,17.5,0,0,0-6.42,8.63"/><path class="cls-2" d="M73.71,40.73s-8.58,13.32-24.6,13.32-29-13.32-29-13.32,13-13.31,29-13.31,24.6,13.31,24.6,13.31"/><path class="cls-3" d="M20.1,40.73s13,13.32,29,13.32a28.43,28.43,0,0,0,6.13-.67,20.67,20.67,0,0,0,1.33-25,27.8,27.8,0,0,0-7.46-1c-16,0-29,13.31-29,13.31"/><path class="cls-4" d="M67.45,38.17A2.47,2.47,0,1,1,65,35.7a2.48,2.48,0,0,1,2.47,2.47"/><path class="cls-5" d="M66.42,38.17A1.44,1.44,0,1,1,65,36.73a1.45,1.45,0,0,1,1.44,1.44"/><path class="cls-1" d="M54.2,37.65a.26.26,0,0,0-.22-.16h0a2.82,2.82,0,1,1,0-5.64.26.26,0,0,0,.26-.26.27.27,0,0,0-.26-.27,3.35,3.35,0,0,0-1.31,6.44,3.35,3.35,0,0,0,0,6.17A3.35,3.35,0,0,0,54,50.36a.27.27,0,0,0,0-.53,2.82,2.82,0,0,1,0-5.64.26.26,0,0,0,.26-.26h0a.27.27,0,0,0-.26-.27A2.82,2.82,0,0,1,54,38a.26.26,0,0,0,.26-.26h0A.28.28,0,0,0,54.2,37.65Z"/><path class="cls-1" d="M45.24,30.35a.27.27,0,1,0,0-.53,3.85,3.85,0,0,0-1.37,7.44,3.83,3.83,0,0,0,0,7.17,3.85,3.85,0,0,0,1.37,7.44.27.27,0,0,0,.27-.27.26.26,0,0,0-.27-.26,3.33,3.33,0,0,1,0-6.65.27.27,0,1,0,0-.53h0a3.32,3.32,0,0,1,0-6.64h0a.27.27,0,0,0,.27-.26h0s0,0,0,0a.26.26,0,0,0-.25-.23,3.32,3.32,0,1,1,0-6.64Z"/><path class="cls-1" d="M36,33.54A.27.27,0,1,0,36,33a2.78,2.78,0,0,0-1.16,5.31,2.78,2.78,0,0,0,0,5A2.78,2.78,0,0,0,36,48.68a.27.27,0,0,0,.27-.27.26.26,0,0,0-.27-.26,2.26,2.26,0,0,1,0-4.52.27.27,0,1,0,0-.53,2.26,2.26,0,0,1,0-4.52.26.26,0,0,0,.27-.26h0a.27.27,0,0,0-.27-.27,2.26,2.26,0,1,1,0-4.51Z"/></svg>