<svg id="Calque_1" data-name="Calque 1" xmlns="http://www.w3.org/2000/svg" viewBox="0 0 81 80"><defs><style>.cls-1{fill:#d8dfe1;}.cls-2{fill:#7ac2f5;}.cls-3{fill:#f2f2f2;}.cls-4{fill:#fff;}.cls-5{fill:#4a9fe8;}</style></defs><title>Pictos_TOAST_2020</title><circle class="cls-1" cx="40.8" cy="39.94" r="40"/><path class="cls-2" d="M58.7,31.19c0-3.07-2.26-6.27-4.51-9.44-1.68-2.36-1.94-5.89-2-7.53h.2a1.65,1.65,0,0,0,1.76-1.52V11.37a1.65,1.65,0,0,0-1.76-1.53H41.37a1.66,1.66,0,0,0-1.76,1.53V12.7a1.65,1.65,0,0,0,1.76,1.52h.21c0,1.64-.28,5.17-2,7.53-2.25,3.17-4.48,6.37-4.5,9.44,0,0,0,0,0,.07a.43.43,0,0,1,0,0V62.73c0,2.76,4.4,5.68,11.77,5.69h0c7.37,0,11.77-2.93,11.77-5.69V31.31a.43.43,0,0,1,0,0s0,0,0-.07"/><path class="cls-3" d="M37.59,31.73v31c0,1.84,4.18,3.33,9.34,3.33s9.33-1.49,9.33-3.33v-31Z"/><path class="cls-4" d="M56.26,31.73c0,.9-4.18,1.63-9.33,1.63s-9.34-.73-9.34-1.63,4.18-1.62,9.34-1.62,9.33.73,9.33,1.62"/><path class="cls-4" d="M54.43,57.88a1.57,1.57,0,0,1-1.57,1.58h-.61a1.57,1.57,0,0,1-1.57-1.58V37.31a1.57,1.57,0,0,1,1.57-1.58h.61a1.57,1.57,0,0,1,1.57,1.58Z"/><path class="cls-5" d="M22.91,41.88l1.57,24.66c0,1.06,3.26,3.5,9.21,3.5s9.2-2.44,9.2-3.5l1.57-24.66Z"/><path class="cls-2" d="M44.46,41.88c0,1-4.82,1.91-10.77,1.91s-10.78-.86-10.78-1.91S27.74,40,33.69,40s10.77.86,10.77,1.92"/><path class="cls-5" d="M43.46,41.77c0,.79-4.56,1.43-9.7,1.43s-9.87-.64-9.87-1.43,4.73-1.43,9.87-1.43,9.7.64,9.7,1.43"/><path class="cls-2" d="M25,48.53l.8,16.92c0,1.78,3.39,3.22,7.94,3.22s7.8-1.44,7.8-3.22l.78-16.92Z"/><path class="cls-4" d="M42.33,48.83c0,.86-4,1.56-8.58,1.56S25,49.69,25,48.83s4.19-1.57,8.73-1.57,8.58.7,8.58,1.57"/></svg>