<svg id="Calque_1" data-name="Calque 1" xmlns="http://www.w3.org/2000/svg" viewBox="0 0 81 80"><defs><style>.cls-1{fill:#829938;}.cls-2{fill:#fff;}.cls-3{fill:none;stroke:#fff;stroke-miterlimit:10;stroke-width:0.75px;}</style></defs><title>Pictos_TOAST_2020</title><path class="cls-1" d="M40.65,79.79a40,40,0,1,0-40-40.05,40,40,0,0,0,40,40.05"/><path class="cls-2" d="M64.62,50l-2.33-.72,1.71-1A.93.93,0,0,0,64.22,47a.94.94,0,0,0-.76-.39.9.9,0,0,0-.53.17l-1.34.74.64-2.08a.72.72,0,0,0-.47-.9.73.73,0,0,0-.9.48l-1,3.34,0,.15-3,1.65a.27.27,0,0,1-.15,0,.31.31,0,0,1-.13,0,.26.26,0,0,1-.13-.19V46.44a.54.54,0,0,0,.18-.11l2.48-2.48a.72.72,0,0,0-1-1l-1.64,1.64v-2a.93.93,0,0,0-1.85,0v2L52.9,42.84a.72.72,0,1,0-1,1l2.48,2.48a.67.67,0,0,0,.18.11V50a.28.28,0,0,1-.15.24l-.12,0a.3.3,0,0,1-.16-.05l-3-1.65a.4.4,0,0,0,0-.15l-1-3.35a.72.72,0,0,0-1.38.43l.65,2.08L48,46.81a.94.94,0,0,0-.54-.17.93.93,0,0,0-.53,1.68l1.71,1L46.29,50a.72.72,0,0,0-.47.9.71.71,0,0,0,.83.49h.07l3.34-1a.84.84,0,0,0,.23-.12l3.3,1.86a.27.27,0,0,1,.12.22.27.27,0,0,1-.11.22L51,54.14a.67.67,0,0,0-.21-.09l-3.41-.77h-.07A.72.72,0,0,0,47,54.69l2.21.49-2.16,1.31a.93.93,0,0,0-.18,1.3.91.91,0,0,0,1.29.18l2.1-1.24L49.75,59a.72.72,0,0,0,1.41.31l.77-3.41a1.09,1.09,0,0,0,0-.18l2.16-1.28a.27.27,0,0,1,.17-.06l.12,0a.28.28,0,0,1,.15.25v3.56a.52.52,0,0,0-.18.12l-2.48,2.47a.72.72,0,0,0,.51,1.23.71.71,0,0,0,.51-.21l1.64-1.64v1.89a.93.93,0,0,0,1.85,0V60.22L58,61.86a.72.72,0,0,0,1-1l-2.48-2.47a.44.44,0,0,0-.18-.12V54.61a.27.27,0,0,1,.14-.19.31.31,0,0,1,.28,0L59,55.73a.47.47,0,0,0,0,.17l.77,3.42a.7.7,0,0,0,.86.54.72.72,0,0,0,.54-.86l-.52-2.29L62.74,58a.92.92,0,0,0,1.3-.18.93.93,0,0,0-.19-1.3L61.7,55.16l2.2-.5a.7.7,0,0,0,.54-.85.72.72,0,0,0-.79-.56h-.06L60.17,54a.72.72,0,0,0-.2.09l-2.65-1.61a.27.27,0,0,1,0-.44l3.3-1.86a1,1,0,0,0,.23.12l3.35,1h.06a.71.71,0,0,0,.83-.49.72.72,0,0,0-.47-.9"/><path class="cls-2" d="M28.61,45.11l-.09,6.37a3.14,3.14,0,0,1,2.2-.84,3.4,3.4,0,0,1,2.34.93c-.34-3.44-3.31-5.71-4.45-6.46"/><path class="cls-2" d="M22.9,51.36A3,3,0,0,1,25,50.61a3.05,3.05,0,0,1,2.08.73l.08-6.2c-1.1.75-3.8,2.93-4.21,6.22"/><path class="cls-2" d="M25.3,45.05c-4.07.4-7.21,2.87-9.12,6.64h.4a3.47,3.47,0,0,1,2.54-1.08,3.11,3.11,0,0,1,2.27.85,9.55,9.55,0,0,1,3.91-6.41"/><path class="cls-2" d="M30.49,45.06a9.6,9.6,0,0,1,4,6.3,3.09,3.09,0,0,1,2-.68A3.23,3.23,0,0,1,39.19,52l.39-.1a11.22,11.22,0,0,0-9.09-6.82"/><path class="cls-2" d="M28.58,44.13l-.25-2h0a.62.62,0,0,0-1.24,0v.18l-.23,1.79Z"/><path class="cls-2" d="M28.4,52.38l-1.28,0v7.93c0,.94,0,1.56-1.11,1.56-.85,0-1.14-.48-1.14-1.69a.62.62,0,0,0-.59-.61.59.59,0,0,0-.59.59v.09c0,1.56.51,2.76,2.28,2.76s2.44-1.11,2.44-2.7Z"/><path class="cls-2" d="M46.89,24.78,43,25.41l3.69,1.3c0-.13,0-.25,0-.38a7.22,7.22,0,0,1,.18-1.55"/><path class="cls-2" d="M50,20.28l-3.25-2,1.78,3.25A7.91,7.91,0,0,1,50,20.28"/><path class="cls-2" d="M47.77,30.05l-2.45,3L49,31.61a7.89,7.89,0,0,1-1.27-1.56"/><path class="cls-2" d="M55.56,19l-1-3.5-1,3.5a8.26,8.26,0,0,1,1-.06,8.1,8.1,0,0,1,1,.06"/><path class="cls-2" d="M50.38,16.2l.41,3.61a8.28,8.28,0,0,1,1.86-.69Z"/><path class="cls-2" d="M43.42,29.42l4-.05a7,7,0,0,1-.6-1.87Z"/><path class="cls-2" d="M44.2,21.53,47.12,24A7,7,0,0,1,48,22.26Z"/><path class="cls-2" d="M48.47,35.75l2.94-2.62a8,8,0,0,1-1.78-1Z"/><path class="cls-2" d="M52.44,37.2l1.75-3.45a8.31,8.31,0,0,1-2.07-.36Z"/><path class="cls-2" d="M62.57,24.74l3.85.62-3.69,1.3c0-.12,0-.25,0-.38a7.13,7.13,0,0,0-.17-1.54"/><path class="cls-2" d="M59.45,20.24l3.25-2-1.78,3.26a7.86,7.86,0,0,0-1.47-1.29"/><path class="cls-2" d="M61.68,30l2.45,3-3.72-1.42A7.3,7.3,0,0,0,61.68,30"/><path class="cls-2" d="M59.07,16.15l-.41,3.62a7.74,7.74,0,0,0-1.85-.69Z"/><path class="cls-2" d="M66,29.38l-4-.06a7.08,7.08,0,0,0,.59-1.86Z"/><path class="cls-2" d="M65.26,21.49l-2.92,2.45a7.54,7.54,0,0,0-.88-1.72Z"/><path class="cls-2" d="M61,35.7l-2.94-2.61a7.91,7.91,0,0,0,1.78-1Z"/><path class="cls-2" d="M57,37.16,55.27,33.7a7.73,7.73,0,0,0,2.06-.36Z"/><path class="cls-2" d="M61.62,26.28a6.85,6.85,0,0,1-13.67,0,6.85,6.85,0,0,1,13.67,0"/><path class="cls-2" d="M28.62,26.62A3,3,0,1,1,31,23.15a3,3,0,0,1-2.41,3.47m5.32-4.2-.29-.07a2.11,2.11,0,0,0,.23-.19,2.84,2.84,0,0,0,.18-4,2.79,2.79,0,0,0-4-.21,3.58,3.58,0,0,0-.26.29,2.6,2.6,0,0,0-.05-.39A2.8,2.8,0,1,0,24.3,19a2.59,2.59,0,0,0,.31.83,2.79,2.79,0,0,0-4.27,1.54,2.84,2.84,0,0,0,1.91,3.51,1.53,1.53,0,0,0,.29.07,2.11,2.11,0,0,0-.23.19,2.85,2.85,0,0,0-.19,4,2.81,2.81,0,0,0,2.4.92,9.94,9.94,0,0,0-.77,2.87c-.39-.09-1.05-.15-1.16-.19L21,32.44a15.74,15.74,0,0,0-2.94-.21c-.16,0-.41,0-.72,0,0,0-.13,0-.14-.07s0-.13,0-.16a2.1,2.1,0,0,1,.71-.45l.09,0a5.09,5.09,0,0,1,1.52-.25,16,16,0,0,1,2.21.29.11.11,0,0,0,.08,0,.18.18,0,0,0,.07-.05.16.16,0,0,0,0-.15,2.28,2.28,0,0,0-2.59-1.76,4.63,4.63,0,0,0-1.35.27,5.37,5.37,0,0,0-3.13,3.82.18.18,0,0,0,0,.16.17.17,0,0,0,.15.05,3.54,3.54,0,0,1,2.75.65,5.06,5.06,0,0,0,2.28.82,1.88,1.88,0,0,0,.72-.1,2.27,2.27,0,0,0,1.35-1.66.09.09,0,0,1,0-.05h.07c.12.06.86.24,1.39.38a7.58,7.58,0,0,0,.11,1.62l1.76-.34a8.44,8.44,0,0,1,1-5.23,2.8,2.8,0,0,0,5.32-1.67,2.59,2.59,0,0,0-.31-.83,3.1,3.1,0,0,0,.8.38,2.79,2.79,0,0,0,3.47-1.92,2.85,2.85,0,0,0-1.91-3.51"/><path class="cls-3" d="M40.65,76.1A36.1,36.1,0,1,0,4.56,40,36.1,36.1,0,0,0,40.65,76.1"/></svg>