<svg id="Calque_1" data-name="Calque 1" xmlns="http://www.w3.org/2000/svg" viewBox="0 0 81 80"><defs><style>.cls-1{fill:#f6cea7;}.cls-2{fill:#da8824;}</style></defs><title>Pictos_TOAST_2020</title><circle class="cls-1" cx="40.93" cy="40" r="40"/><path class="cls-2" d="M31.67,33.21a3.21,3.21,0,0,1,2.66-1.59.2.2,0,0,1,0,.4A2.85,2.85,0,0,0,32,33.4c-.13.22-.48,0-.35-.19m4.23,1.2.14-.19a.21.21,0,0,1,.33,0c.14,0,.29.13.2.28l-.29.46A.21.21,0,0,1,36,35l0,0a.2.2,0,0,1-.32,0,6.51,6.51,0,0,1-.54.51c-.2.16-.42-.17-.22-.34a4.07,4.07,0,0,0,.75-.8.18.18,0,0,1,.26,0m-6.36-.07a4.42,4.42,0,0,1-4.42-1c-.19-.18.12-.43.31-.26a4,4,0,0,0,3.94.85c.25-.09.42.28.17.36m-3.78-3.55.29,0a.18.18,0,0,1,.18.09c.19,0,.38.08.57.14s.17.37,0,.39h0a.21.21,0,0,1,0,.19,4,4,0,0,1,.39.23c.2.15,0,.48-.24.33a1.86,1.86,0,0,0-.7-.32.2.2,0,0,1-.08-.32A1,1,0,0,1,26,31.4a.2.2,0,0,1-.07-.2h-.12c-.22,0-.25-.38,0-.4m1.95-.41c-2.54-.82-4.1.05-4.27.84-.35,1.06-.25,1.37.86,2.16s1.34,1.31,2.63,1.77a3.48,3.48,0,0,0,2.41-.09,2.21,2.21,0,0,0,.81-.54c0,.37.26.74,1.09,1.14s1.74,1.2,3.64.62A3.47,3.47,0,0,0,37.53,33c-.15-1.44-2.27-2-3.82-1.82s-1.89,1.69-2.6,1.85a1,1,0,0,0-.42.2c-.08-.95-.41-2-3-2.88"/><path class="cls-2" d="M39.13,50.89c-.24-.07-.09-.44.16-.37a4,4,0,0,0,3.88-1.1c.18-.18.5.06.32.25a4.42,4.42,0,0,1-4.36,1.22m-.64-2.6.24-.16a.21.21,0,0,1,.2,0c.19,0,.38-.1.57-.13a.2.2,0,0,1,.15.35l0,0a.24.24,0,0,1,.09.17,3.39,3.39,0,0,1,.45,0c.25,0,.2.44,0,.4a1.86,1.86,0,0,0-.78,0c-.14,0-.24-.12-.22-.25H39a.26.26,0,0,1-.16-.15l-.11,0c-.2.09-.4-.21-.2-.34m5.6,0c-.52-.84-1.25-1.77-4.07-1.29-2.63.45-3.6,2-3.39,2.74.19,1.09.42,1.32,1.78,1.5s1.79.53,3.14.34a3.46,3.46,0,0,0,2.1-1.2,2.13,2.13,0,0,0,.44-2.09"/><path class="cls-2" d="M48,41.57a4.39,4.39,0,0,1,4.46-.76c.24.09.05.44-.19.35a4,4,0,0,0-4,.68c-.19.17-.49-.1-.29-.27m4.83,1.89-.26.13a.18.18,0,0,1-.2,0,5.4,5.4,0,0,1-.58.08c-.19,0-.29-.28-.11-.37l0,0a.23.23,0,0,1-.07-.18,2.13,2.13,0,0,1-.44-.07.2.2,0,0,1,.09-.39,1.82,1.82,0,0,0,.77,0,.19.19,0,0,1,.19.27l.16,0a.21.21,0,0,1,.14.16l.11,0c.21-.06.38.25.17.36m-1.66,1.1c2.66-.17,3.79-1.57,3.66-2.37-.07-1.11-.28-1.36-1.61-1.68s-1.73-.71-3.09-.67a3.53,3.53,0,0,0-2.21,1,2.1,2.1,0,0,0-.66,2c.43.9,1.06,1.9,3.91,1.71"/><path class="cls-2" d="M67.46,35.52a2.79,2.79,0,0,0-2.59-.76c-.25.05-.36-.33-.1-.39a3.2,3.2,0,0,1,3,.87.2.2,0,1,1-.28.28m-.27,3.29-.53.1a.22.22,0,0,1-.25-.16h0c-.14,0-.28-.07-.26-.21a6,6,0,0,1-.73,0c-.29,0-.13-.53.19-.36a1,1,0,0,0,.8,0l.15-.06h0a.17.17,0,0,1,.24.16l.24,0a.22.22,0,0,1,.25.22.19.19,0,0,1-.07.34m.43-4.31c-1.17-1-2.52-.23-3.12-.64a1.47,1.47,0,0,0-1.67.22c-.28.29-.44.69-.15,1.65s.31,2.09,2,3.08a3.44,3.44,0,0,0,4.18-.28c1-1.08-.09-3-1.27-4"/><path class="cls-2" d="M21.85,24.89l.2-.5a.22.22,0,0,1,.27-.12l0,0a.2.2,0,0,1,.32-.1,4.94,4.94,0,0,1,.43-.59c.19-.22.51.17.19.35a1,1,0,0,0-.46.66l0,.15h0a.17.17,0,0,1-.27.11c0,.08-.07.15-.1.22a.22.22,0,0,1-.32.09c-.14,0-.31-.07-.24-.24m2.6,2a2.81,2.81,0,0,0,2.06-1.76c.09-.24.47-.12.38.12a3.2,3.2,0,0,1-2.35,2c-.25.05-.34-.34-.09-.39m.77.69c1.51-.43,1.58-2,2.25-2.27a1.47,1.47,0,0,0,.71-1.52c-.09-.4-.33-.75-1.29-1s-1.93-.88-3.7,0a3.47,3.47,0,0,0-2,3.67c.4,1.38,2.57,1.55,4.07,1.13"/><path class="cls-2" d="M14.86,29.09A4,4,0,0,1,17,26.55a3,3,0,0,1,2.79.2c.21.14,0,.46-.24.33a2.61,2.61,0,0,0-2.5-.12,3.73,3.73,0,0,0-1.85,2.28c-.08.24-.45.09-.37-.15M18.29,31a.17.17,0,0,1-.17-.05h0L18,31l-.3.12A.18.18,0,0,1,17.4,31l-.14,0c-.11,0-.27,0-.28-.15l-.54.16c-.24.08-.4-.29-.15-.37l.81-.24a.2.2,0,0,1,.26.11s0,0,0,0l.29-.08a.21.21,0,0,1,.23.06c.19-.07.4-.12.53,0a.25.25,0,0,1-.13.44m-.36.42c2.91-.47,3.76-3.07,2.76-4.35-2.28-2.9-5.6,0-6.12,1.41s-1.43,1.63-.93,2.76c.63,1.42,2.24.5,4.29.18"/><path class="cls-2" d="M58,25.19a3,3,0,0,1,2.78.21c.22.14,0,.46-.24.32a2.61,2.61,0,0,0-2.5-.11,3.74,3.74,0,0,0-1.85,2.27c-.08.25-.45.1-.37-.15A4.11,4.11,0,0,1,58,25.19m1.26,4.48a.17.17,0,0,1-.17-.06h0l-.15.06a1.88,1.88,0,0,0-.3.12.19.19,0,0,1-.26-.13l-.14,0a.21.21,0,0,1-.28-.14l-.54.16c-.24.07-.4-.3-.15-.37l.81-.24a.21.21,0,0,1,.27.1v.05l.28-.09a.23.23,0,0,1,.23.07c.2-.08.41-.12.53,0a.25.25,0,0,1-.12.44m-3.73-2.52c-.52,1.42-1.42,1.63-.92,2.75.63,1.42,2.24.51,4.29.18,2.91-.46,3.76-3.06,2.75-4.34-2.27-2.91-5.6,0-6.12,1.41"/><path class="cls-2" d="M63.88,41.47a2.64,2.64,0,0,0-2.5-.11,3.77,3.77,0,0,0-1.85,2.27c-.08.25-.45.1-.37-.15A4.05,4.05,0,0,1,61.33,41a3,3,0,0,1,2.79.2c.22.14,0,.46-.24.32m-1.28,4a.15.15,0,0,1-.17-.06h0l-.15.06a2.52,2.52,0,0,0-.29.12.19.19,0,0,1-.26-.12l-.14,0a.23.23,0,0,1-.28-.15l-.54.16c-.24.07-.4-.29-.15-.37l.81-.24a.19.19,0,0,1,.26.11.06.06,0,0,1,0,0l.29-.08a.21.21,0,0,1,.23.06c.2-.07.4-.12.53,0a.25.25,0,0,1-.12.44M65,41.49c-2.27-2.9-5.6,0-6.12,1.41s-1.42,1.63-.92,2.75c.63,1.42,2.24.51,4.28.18,2.92-.46,3.76-3.06,2.76-4.34"/><path class="cls-2" d="M45.77,36.36l-.79-.3c-.09,0-.19-.13-.14-.24s0,0,0,0l-.28-.11a.2.2,0,0,1-.14-.19c-.2-.06-.39-.15-.43-.3a.25.25,0,0,1,.36-.28.16.16,0,0,1,.1.15h0l.15.05.31.09a.18.18,0,0,1,.13.25l.14.05a.23.23,0,0,1,.13.29l.52.19c.24.09.14.48-.1.39m.16,2.16a4.12,4.12,0,0,1-3.27.71,3,3,0,0,1-2.09-1.85c-.09-.25.29-.36.38-.12a2.64,2.64,0,0,0,1.92,1.61,3.76,3.76,0,0,0,2.85-.69c.21-.15.42.2.21.34m2.28-1c.35-1.51-1.48-1.76-3.31-2.74-2.6-1.39-4.85.16-4.82,1.79.05,3.69,4.45,3.4,5.72,2.58s2.12-.44,2.41-1.63"/><path class="cls-2" d="M38.2,40.71c0,.26-.41.19-.4-.06a3.25,3.25,0,0,0-1.62-3c-.22-.13-.06-.5.16-.37a3.7,3.7,0,0,1,1.86,3.41m-.77,2.53-.29-.17a.21.21,0,0,1-.11-.26h0l-.62-.27a.2.2,0,0,1,0-.37l.1,0,0,0c-.13-.23.2-.46.33-.24a.49.49,0,0,0,.26.25.2.2,0,0,1,0,.33l.25.11a.19.19,0,0,1,.1.26v0l.12.07c.22.13.06.5-.16.37M34.09,37c-1.56.9-.79,2.87-.31,4.19s1.7,1.59,2.48,2,1.45,1.39,2,1,1.1-.49.1-4.68C37.41,35.65,34.09,37,34.09,37"/><path class="cls-2" d="M51.41,46.68a3.25,3.25,0,0,0-3.35.53c-.19.17-.48-.1-.29-.27a3.69,3.69,0,0,1,3.83-.62c.24.1,0,.45-.19.36m3.49.76c-.2-.63-.1-1.2-4.38-1.65C46.58,45.38,46.73,49,46.73,49c.32,1.76,2.44,1.69,3.84,1.68S52.63,49.57,53.3,49s1.79-.9,1.6-1.53"/><path class="cls-2" d="M17.57,43.12a3.73,3.73,0,0,1,.27-3.56c.14-.22.47,0,.33.22A3.31,3.31,0,0,0,17.93,43c.1.23-.26.41-.36.17M20,44.32a3.68,3.68,0,0,0,1.4-2.74c0-.25.37-.33.39-.07a4.06,4.06,0,0,1-1.53,3.12c-.17.18-.43-.12-.26-.31m-1.38,1.8A1.27,1.27,0,0,0,20,45.2c.45-1.06,1.59-1,1.91-3.21s-.79-3.88-1.58-4A2.75,2.75,0,0,0,17.1,40.7c-.27,2.82.4,2.51.63,3.3s-.07,1.81.89,2.12"/><path class="cls-2" d="M48.55,56.83a4,4,0,0,0-3.06-2.63c-.25-.05-.24-.45,0-.4a4.42,4.42,0,0,1,3.43,3c.08.24-.31.32-.39.08m-3.1-.48a2.65,2.65,0,0,1-.42-.18.22.22,0,0,1-.15.12l0,0a.2.2,0,0,1-.29.26,3.94,3.94,0,0,1-.45-.36.23.23,0,0,1-.19-.1l-.15-.24c-.12-.2.18-.39.33-.23l.08.09a.22.22,0,0,1,.21-.07l.14.06a.21.21,0,0,1,.31-.14,1.62,1.62,0,0,0,.68.37.2.2,0,0,1-.12.39M48,54.17c-1.14-.74-1.57-.57-3-1s-1.62-.3-2.25.61c-.52.62-.27,2.39,1.92,3.92,2.34,1.63,3.4,1.1,4.23.55a2.15,2.15,0,0,0,.48-2.08,3.51,3.51,0,0,0-1.39-2"/><path class="cls-2" d="M27.72,58.46c-.16.2-.45-.08-.29-.28a4,4,0,0,0,.55-4c-.1-.23.24-.44.34-.2a4.4,4.4,0,0,1-.6,4.48m-1.24-4a2,2,0,0,0,.06.77.2.2,0,0,1-.39.11,3.54,3.54,0,0,1-.08-.45.21.21,0,0,1-.18-.06l0,0c-.08.19-.37.09-.37-.1s0-.38.06-.58a.2.2,0,0,1,0-.2,2.1,2.1,0,0,1,.13-.26c.09-.21.42-.06.36.15,0,0,0,.08,0,.12a.19.19,0,0,1,.16.14.8.8,0,0,1,0,.15c.13,0,.3,0,.28.18m.38-2.78c-.8-.11-2.16,1.07-2.24,3.73-.09,2.86.93,3.46,1.84,3.86a2.11,2.11,0,0,0,2-.73,3.46,3.46,0,0,0,.91-2.24c0-1.36-.37-1.63-.77-3.07s-.63-1.52-1.74-1.55"/><path class="cls-2" d="M22.41,51.49c0,.18,0,.36,0,.54s-.2.22-.32.14a.22.22,0,0,1-.26-.21,1.69,1.69,0,0,1,0-.23.19.19,0,0,1-.22-.16,3.91,3.91,0,0,0-.21-1.07c-.09-.25.27-.42.36-.18A6.38,6.38,0,0,1,22,51c.13,0,.25.07.26.21v0a.22.22,0,0,1,.2.21M19,53.28a3.24,3.24,0,0,1-1.43-2.76c0-.25.41-.22.4,0A2.82,2.82,0,0,0,19.25,53c.22.14,0,.47-.23.33m-.51-5.06c-1-.1-1.35.13-1.58.46a1.47,1.47,0,0,0,.1,1.68c.53.51,0,2,1.25,2.94s3.32,1.6,4.2.46a3.45,3.45,0,0,0-.54-4.16c-1.32-1.49-2.43-1.28-3.43-1.38"/><path class="cls-2" d="M61.25,35.09c.07-.25.46-.18.4.07a3,3,0,0,1-1.91,2.05,4.08,4.08,0,0,1-3.32-.39c-.22-.12-.05-.48.18-.36a3.67,3.67,0,0,0,2.89.41,2.6,2.6,0,0,0,1.76-1.78m-5-.81.5-.24a.23.23,0,0,1,.11-.3l.13-.07a.18.18,0,0,1,.1-.26l.3-.11.15-.07h0a.17.17,0,0,1,.09-.15.25.25,0,0,1,.39.24c0,.16-.21.26-.4.34a.21.21,0,0,1-.13.2l-.26.14,0,0c0,.1,0,.21-.12.26l-.76.37c-.23.11-.37-.26-.14-.38M57.08,33c-1.63,1.21-3.13,1.82-3,3.05s1.2.7,2.55,1.39,5.75.55,5.45-3.12c-.14-1.63-2.61-3.08-5-1.32"/><path class="cls-2" d="M38.91,27A4.13,4.13,0,0,1,42,28.29c.18.18-.08.49-.26.3a3.75,3.75,0,0,0-2.67-1.2,2.6,2.6,0,0,0-2.19,1.22c-.13.22-.49,0-.36-.18A3,3,0,0,1,38.91,27m2.56,3.8-.56.09a.22.22,0,0,1-.18.26l-.14,0a.19.19,0,0,1-.18.22l-.32,0-.16,0h0a.16.16,0,0,1-.13.12.25.25,0,0,1-.31-.34c.07-.14.28-.19.49-.21a.23.23,0,0,1,.17-.17l.3-.05s0,0,0,0a.21.21,0,0,1,.18-.22l.84-.14c.25-.05.28.35,0,.4m-5.59-1.67c-.32,1.59,1.65,3.68,4.41,2.65,1.9-.71,3.52-.87,3.76-2.08s-1-1-2.06-2.05-5.37-2.14-6.11,1.48"/><path class="cls-2" d="M68.39,49.4l-.15.66h0a.21.21,0,0,1,.16.24c0,.11,0,.22,0,.34s-.42.16-.39-.09c0,0,0-.09,0-.14h0a.22.22,0,0,1-.16-.24l.06-.27a.19.19,0,0,1-.23-.23.53.53,0,0,0,0-.35c-.11-.24.27-.36.38-.13a.14.14,0,0,0,0,.06l.1-.06a.2.2,0,0,1,.3.21m-2.52.35a3.67,3.67,0,0,1-1.65-3.51c0-.26.42-.17.39.09a3.26,3.26,0,0,0,1.44,3.07c.22.14,0,.49-.18.35m-.57-5.51s-3,1.88-.48,4.91c2.77,3.29,3.19,2.89,3.82,2.7s.26-1.29.37-2.18.63-2-.15-3.2S67,43.52,65.3,44.24"/><path class="cls-2" d="M40.17,58.32,40,59h0a.2.2,0,0,1,.15.24l0,.33c0,.26-.42.17-.4-.08a.68.68,0,0,0,0-.14h0a.2.2,0,0,1-.15-.23l.06-.27a.19.19,0,0,1-.23-.23.48.48,0,0,0,0-.35c-.1-.24.28-.36.38-.13l0,.06.09-.06a.21.21,0,0,1,.31.21m-2.52.35A3.67,3.67,0,0,1,36,55.16c0-.26.42-.17.39.09a3.27,3.27,0,0,0,1.44,3.07c.21.14,0,.49-.18.35m-.57-5.51S34,55,36.6,58.07c2.77,3.29,3.18,2.89,3.82,2.7s.25-1.29.37-2.18.62-2-.15-3.2-1.91-3-3.56-2.23"/><path class="cls-2" d="M58.4,48.9A3.22,3.22,0,0,0,57.14,50l0,0a.21.21,0,0,1,.33.06l.18-.19a.19.19,0,0,1,.28,0l0,0,.11-.09c.19-.17.49.1.29.27l-.26.22a.2.2,0,0,1-.28,0h0c-.16.16-.31.33-.46.49a.21.21,0,0,1-.35-.13v-.12l-.06,0a.16.16,0,0,1-.1,0,3.27,3.27,0,0,0-.26,1.23c0,.26-.4.3-.39,0a3.67,3.67,0,0,1,2-3.29c.23-.12.37.26.14.37m-.51,4.85-.64.23h0a.2.2,0,0,1-.11.26l-.3.15c-.23.12-.37-.26-.14-.37l.12-.06v0a.2.2,0,0,1,.12-.26l.25-.09a.19.19,0,0,1,.07-.32.6.6,0,0,0,.27-.23c.14-.22.45,0,.31.25l0,0,.11.05a.21.21,0,0,1,0,.37m-1.75-3.13c-1.24,4.12-.68,4.25-.17,4.67s1.23-.49,2-.88,2-.59,2.6-1.87,1.43-3.21-.08-4.2c0,0-3.23-1.52-4.38,2.28"/><path class="cls-2" d="M30.83,44.73A3.28,3.28,0,0,0,29,47.61c0,.26-.4.3-.4,0a3.68,3.68,0,0,1,2.05-3.29c.23-.12.37.26.14.37m-.51,4.85-.64.23h0a.21.21,0,0,1-.11.26l-.3.15c-.23.12-.37-.26-.14-.37l.12-.07v0a.2.2,0,0,1,.12-.26l.25-.09a.19.19,0,0,1,.07-.32.52.52,0,0,0,.27-.24c.14-.21.45,0,.31.25a.1.1,0,0,1,0,0l.11.05a.21.21,0,0,1,0,.38M33,44.17s-3.24-1.52-4.38,2.28c-1.24,4.12-.68,4.25-.17,4.67s1.23-.49,2-.88,2-.59,2.6-1.87,1.43-3.21-.08-4.2"/><path class="cls-2" d="M51.55,19.69a3.76,3.76,0,0,1,3.53.59c.2.16-.06.47-.26.31a3.3,3.3,0,0,0-3.13-.52.2.2,0,0,1-.14-.38m4.11,3.24c.23-.12.46.2.23.33A4.08,4.08,0,0,1,52.5,24c-.24-.09-.07-.45.17-.36a3.66,3.66,0,0,0,3-.71m-2.73,1.3c2.2.21,2.45-.91,3.59-1.09s1.22-1,1.21-1.12c-.06-1-1.21-1-1.84-1.37s-.25-1-3-1.4a2.76,2.76,0,0,0-3.43,2.48c0,.81,1.33,2.29,3.52,2.5"/><path class="cls-2" d="M45.47,26.31a4,4,0,0,0,3.94.85c.24-.08.42.28.17.36a4.4,4.4,0,0,1-4.42-.95c-.19-.17.12-.43.31-.26M45.8,24l.29,0a.19.19,0,0,1,.18.08l.57.15a.2.2,0,0,1,0,.38h0a.23.23,0,0,1,0,.2,2.14,2.14,0,0,1,.38.23.2.2,0,0,1-.23.32,1.86,1.86,0,0,0-.7-.32.19.19,0,0,1-.08-.32L46,24.59a.23.23,0,0,1-.08-.2l-.11,0c-.22,0-.26-.37,0-.4M47,28.33a3.45,3.45,0,0,0,2.42-.09,2.11,2.11,0,0,0,1.37-1.63c-.07-1-.28-2.16-3-3-2.54-.83-4.1.05-4.28.84-.35,1.05-.24,1.36.87,2.15s1.34,1.31,2.62,1.77"/><path class="cls-2" d="M31.31,23.42a.15.15,0,0,1,.12-.13v0c0-.06,0-.11,0-.16s0-.22,0-.32a.2.2,0,0,1,.22-.19l0-.14c0-.11.14-.23.25-.19l.08-.56c0-.25.44-.23.4,0l-.12.84a.19.19,0,0,1-.21.19h0c0,.1,0,.2-.05.3a.22.22,0,0,1-.15.18c0,.21-.06.42-.21.49a.25.25,0,0,1-.34-.3m3,2.83A2.62,2.62,0,0,0,35.5,24a3.73,3.73,0,0,0-1.28-2.63c-.19-.18.11-.45.29-.28a4.12,4.12,0,0,1,1.39,3.05,3,3,0,0,1-1.37,2.43c-.22.14-.41-.21-.19-.35m-.48,1c3.59-.83,2.37-5.07,1.3-6.14s-.87-2-2.1-2c-1.55,0-1.41,1.81-2,3.81-.8,2.83,1.19,4.7,2.78,4.33"/><path class="cls-2" d="M26.78,42.62h0L26.57,42a.2.2,0,0,1,.28-.24l.11,0a.13.13,0,0,1,0-.06c.08-.25.47-.16.39.08a.56.56,0,0,0,0,.36.2.2,0,0,1-.21.26l.09.25a.21.21,0,0,1-.13.25h0l0,.14c0,.25-.33.37-.38.12s0-.22-.07-.33a.21.21,0,0,1,.13-.25m2.12-.88A3.25,3.25,0,0,0,30,38.55c-.05-.25.33-.38.38-.13a3.66,3.66,0,0,1-1.3,3.66c-.2.16-.41-.18-.21-.34m-2.34,2.7c.65.13,1.1.49,3.54-3.06,2.25-3.26-1-4.84-1-4.84-1.71-.56-2.66,1.33-3.32,2.56s-.05,2.33.15,3.2-.06,2,.59,2.14"/><path class="cls-2" d="M56.87,50.55a4.11,4.11,0,0,1,.27-.51.49.49,0,0,1-.28.13c-.22,0-.17.33,0,.38"/></svg>