<svg id="Calque_1" data-name="Calque 1" xmlns="http://www.w3.org/2000/svg" viewBox="0 0 81 80"><defs><style>.cls-1{fill:#e1dccc;}.cls-2{fill:#9e925e;}</style></defs><title>Pictos_TOAST_2020</title><circle class="cls-1" cx="39.91" cy="40.39" r="40"/><path class="cls-2" d="M45.94,63.2a5.7,5.7,0,1,1,5.7-5.69,5.69,5.69,0,0,1-5.7,5.69M62.23,19.91c-1.2-3.4-3.81-8.29-7.51-9.55a.84.84,0,0,0-1.33-.07c-1.8,2-4.33,3-6.62,4.29-2.67,1.54-5.18,3.51-7.71,5.29A128.83,128.83,0,0,0,25.2,30.75c-3.69,3.46-7.37,8.22-8,13.39C16.86,47,17.08,50,17,53c-.08,1.77-.22,3.81,1.12,5.15a.75.75,0,0,0,.85.56c4.4-.46,7.71-3.64,10.85-6.47,4.17-3.76,8.94-6.85,13.34-10.32,5.31-4.18,10.65-9.4,13.48-15.68A7.21,7.21,0,0,0,57.85,29c2.29,3.18-1.12,6.73-4.48,5.51a.93.93,0,0,0-1.14.65,3.58,3.58,0,0,1-1.62,2,1,1,0,0,0-.08,1.53.83.83,0,0,0,.27.76c2.19,2.12,3.12,5.53,0,7.29a3.67,3.67,0,0,1-5.27-2.26.91.91,0,0,0-1.23-.59.94.94,0,0,0-.5.12c-4.94,2.8-7.15,9.22-6.56,14.52.32,2.75-1.84,7.56-.37,9.93.86,2.82-.27,2.45,2.64,1.88.37.33,7-.66,7.29-.88a20.9,20.9,0,0,0,2.63-1C57.75,63.68,54.8,55.93,54.8,54a15,15,0,0,0,3.14-5,8.6,8.6,0,0,0-.88-8.36c4.27-4.84,7.23-14.95,5.17-20.75"/><path class="cls-2" d="M51.39,42.09A1.44,1.44,0,1,0,50,43.53a1.44,1.44,0,0,0,1.44-1.44"/><path class="cls-2" d="M56.28,32.6a1.1,1.1,0,1,0-1.1-1.1,1.1,1.1,0,0,0,1.1,1.1"/><path class="cls-2" d="M46.81,52.66a1.44,1.44,0,1,0,1.44,1.44,1.45,1.45,0,0,0-1.44-1.44"/></svg>