<svg id="Calque_1" data-name="Calque 1" xmlns="http://www.w3.org/2000/svg" viewBox="0 0 81 80"><defs><style>.cls-1{fill:#b6ccc2;}.cls-2{fill:#4d7f71;}</style></defs><title>Pictos_TOAST_2020</title><circle class="cls-1" cx="39.95" cy="39.77" r="40"/><path class="cls-2" d="M31.33,44.9a6.58,6.58,0,0,1-1.79,5,11,11,0,0,1-3.39,2.35,8.45,8.45,0,0,1-3.25.65,8.54,8.54,0,0,1-6-2.25,7.61,7.61,0,0,1-2.43-5.84h5.74a3.31,3.31,0,0,0,1,1.87,2.7,2.7,0,0,0,2,.74A3,3,0,0,0,25,46.85a2,2,0,0,0,.75-1.63,1.87,1.87,0,0,0-.94-1.79,24.35,24.35,0,0,0-3.48-1.36A11.49,11.49,0,0,1,17,39.61a5.57,5.57,0,0,1-1.76-4.3,6.6,6.6,0,0,1,2.32-5.21,8.25,8.25,0,0,1,5.57-2,7.5,7.5,0,0,1,5.25,2.13,6.68,6.68,0,0,1,2.3,5.09H25.22a1.85,1.85,0,0,0-.7-1.27,2.37,2.37,0,0,0-1.45-.42,2.32,2.32,0,0,0-1.58.52,1.82,1.82,0,0,0-.62,1.45A1.43,1.43,0,0,0,21.61,37,26.34,26.34,0,0,0,25,38.14a13.75,13.75,0,0,1,4.49,2.21A5.38,5.38,0,0,1,31.33,44.9Z"/><path class="cls-2" d="M58.32,40.57a11.8,11.8,0,0,1-3.67,8.74,12.13,12.13,0,0,1-8.85,3.61A12.43,12.43,0,0,1,33.44,40.57a11.94,11.94,0,0,1,3.67-8.87,12.28,12.28,0,0,1,8.94-3.62,11.68,11.68,0,0,1,8.71,3.68A12.19,12.19,0,0,1,58.32,40.57Zm-5.6,0a6.84,6.84,0,0,0-2-4.91,6.58,6.58,0,0,0-4.91-2,6.4,6.4,0,0,0-4.72,2.12A6.83,6.83,0,0,0,41,45.41a6.44,6.44,0,0,0,4.8,2,6.7,6.7,0,0,0,6.9-6.87Z"/><path class="cls-2" d="M65.47,57.45H59.72V55.94l3.07-2.85a4.46,4.46,0,0,0,.87-1,1.74,1.74,0,0,0,.22-.82,1.26,1.26,0,0,0-.36-.93A1.21,1.21,0,0,0,62.6,50a1.18,1.18,0,0,0-1,.49,1.93,1.93,0,0,0-.36,1.19H59.63V51.3a2.81,2.81,0,0,1,.84-2,2.77,2.77,0,0,1,2-.86,2.92,2.92,0,0,1,2.11.83,2.94,2.94,0,0,1,.68,3.09,3.36,3.36,0,0,1-.53.93l-1.11,1.17L62,55.94h3.51Z"/></svg>