<svg id="Calque_1" data-name="Calque 1" xmlns="http://www.w3.org/2000/svg" viewBox="0 0 81 80"><defs><style>.cls-1{fill:#829938;}.cls-2{fill:#fff;}</style></defs><title>Pictos_TOAST_2020</title><circle class="cls-1" cx="40.54" cy="40" r="40"/><path class="cls-2" d="M67.29,26.66h2.58c.42,0,.75-.45.75-1s-.33-1-.75-1h-3.8A5.38,5.38,0,0,0,68.58,21a5,5,0,0,0-1.92-4.07,1,1,0,0,0-1.42.18,1,1,0,0,0,.17,1.43,3,3,0,0,1,1.14,2.26c-.11.95-1,1.92-2.67,2.83a2.79,2.79,0,0,0-1.51-.45V28.8A2.8,2.8,0,0,0,64.3,28c4.12.09,4.28,4,4.28,4.42a1,1,0,0,0,1,1,1,1,0,0,0,1-1A6.54,6.54,0,0,0,67.29,26.66Z"/><path class="cls-2" d="M44.9,42.79c0,1.42-.78,2.56-1.75,2.56s-1.76-1.14-1.76-2.56v-8H37.45v8c0,1.42-.79,2.56-1.77,2.56s-1.76-1.14-1.76-2.56v-8c-1.31-.06-2.68-.15-4.07-.28v6.46c0,6,2.55,11.15,6.17,13.26,0,.09,0,.19,0,.27L35.32,71.9h8.61l-.62-17.44a2.65,2.65,0,0,0,0-.27c3.62-2.11,6.18-7.24,6.18-13.26V34.59c-1.44.09-3,.13-4.57.16Z"/><path class="cls-1" d="M44.22,72.17H35l.7-17.72v-.11c-3.75-2.28-6.17-7.52-6.17-13.41V34.17l.3,0c1.33.12,2.7.22,4.06.28h.27v8.3c0,1.24.67,2.29,1.48,2.29s1.49-1,1.49-2.29V34.53h4.49v8.27c0,1.26.67,2.29,1.49,2.29s1.48-1,1.48-2.29v-8.3h.27c1.76,0,3.25-.09,4.55-.16l.29,0v6.63c0,5.88-2.41,11.12-6.16,13.41v.12Zm-8.61-.55h8L43,54.47a1,1,0,0,1,0-.17L43,54l.14-.09c3.67-2.14,6-7.25,6-13v-6C48,35,46.7,35,45.18,35v7.77c0,1.56-.91,2.83-2,2.83s-2-1.24-2-2.83V35.07H37.72v7.71c0,1.59-.9,2.83-2,2.83s-2-1.27-2-2.83V35c-1.18,0-2.37-.13-3.53-.24v6.16c0,5.77,2.37,10.88,6,13l.15.09v.17a2.11,2.11,0,0,0,0,.25Z"/><path class="cls-2" d="M53.11,17.52V21.6c0,1.12-.46,2-1,2s-1-.91-1-2V17.3c-2.86-.24-6.25-.31-10.16-.32v8.69c0,1.12-.46,2-1,2s-1-.91-1-2V17H36.51a68.65,68.65,0,0,0-7.79.45V21.6c0,1.12-.45,2-1,2s-1-.91-1-2V17.69c-9,1.34-16.26,4.41-16.26,8,0,4.79,13,8.69,26.08,8.69,15.79,0,24.41,0,25.86-6.52V23.49C61.56,19.83,58.47,18.22,53.11,17.52Z"/><path class="cls-1" d="M36.51,34.63c-12.47,0-26.36-3.68-26.36-9,0-3.54,6.48-6.77,16.5-8.25l.31-.05V21.6c0,1,.39,1.76.74,1.76s.75-.75.75-1.76V17.18l.24,0a69.26,69.26,0,0,1,7.82-.45h2.65v9c0,1.08.43,1.75.74,1.75s.74-.75.74-1.75v-9h.28c3.47,0,7.11.07,10.18.33l.25,0V21.6c0,1,.39,1.76.75,1.76s.73-.67.73-1.76V17.21l.31,0c5.87.76,8.7,2.61,9.5,6.18V27.9C61.14,34.63,52.39,34.63,36.51,34.63ZM26.42,18C17,19.44,10.7,22.51,10.7,25.67c0,4.4,12.3,8.42,25.81,8.42,15.58,0,24.17,0,25.58-6.28V23.52c-.72-3.22-3.34-4.93-8.71-5.68V21.6c0,1.31-.55,2.31-1.28,2.31s-1.3-1-1.3-2.31v-4c-2.91-.24-6.33-.29-9.61-.31v8.42c0,1.31-.55,2.3-1.29,2.3s-1.29-1-1.29-2.3V17.25h-2.1a68.5,68.5,0,0,0-7.51.43V21.6c0,1.31-.56,2.31-1.3,2.31s-1.28-1-1.28-2.31Z"/></svg>