<svg id="Calque_1" data-name="Calque 1" xmlns="http://www.w3.org/2000/svg" viewBox="0 0 81 80"><defs><style>.cls-1{fill:#829938;}.cls-2{fill:#fff;}.cls-3{fill:#f8f8f8;}</style></defs><title>Pictos_TOAST_2020</title><circle class="cls-1" cx="40.8" cy="40" r="40"/><path class="cls-2" d="M52.82,71.75a19,19,0,1,1,19-20A19,19,0,0,1,52.82,71.75Zm.37-36A17,17,0,1,0,69.78,53.2,17,17,0,0,0,53.19,35.78Z"/><path class="cls-1" d="M53.19,35.78A17,17,0,1,1,35.82,52.32,17,17,0,0,1,53.19,35.78Zm-.41,32.51c1.42-.25,2.82-.44,4.19-.74a1.41,1.41,0,0,0,1-2.1Q55.72,60.22,53.4,55a1,1,0,0,0-.66-.53c-.19,0-.5.29-.6.52q-2.3,5.23-4.54,10.48a1.4,1.4,0,0,0,1,2.07C50,67.84,51.37,68,52.78,68.29ZM44.6,65.61a1.62,1.62,0,0,0,1.56-1q2.63-4.95,5.27-9.89c.17-.32.34-.63.07-1s-.62-.25-1-.16l-3,.82-7.88,2.16a1.43,1.43,0,0,0-1,2.11,15.18,15.18,0,0,0,5.24,6.54A3.51,3.51,0,0,0,44.6,65.61Zm8.79-20.84h0c-.08,1.88-.15,3.76-.24,5.65,0,.35,0,.74.39.82a1.12,1.12,0,0,0,.83-.22c1-.8,1.88-1.67,2.83-2.49l5.73-4.9a1.47,1.47,0,0,0,0-2.45,15.22,15.22,0,0,0-7.36-3.55,1.45,1.45,0,0,0-1.93,1.54Zm-1.13-1.52h-.12C52.08,41.84,52,40.42,52,39a1.42,1.42,0,0,0-1.78-1.41,15.23,15.23,0,0,0-7.47,3.55,1.48,1.48,0,0,0,0,2.52L46.59,47c1.56,1.35,3.1,2.71,4.68,4a.93.93,0,0,0,.79.17,1,1,0,0,0,.37-.71c0-1-.14-2-.16-3C52.23,46.08,52.26,44.66,52.26,43.25ZM37.43,52.33c0,.41,0,.84,0,1.25A1.44,1.44,0,0,0,39.31,55c3.11-.59,6.21-1.19,9.32-1.77.66-.13,1.34-.19,2-.35a.9.9,0,0,0,.53-.55.74.74,0,0,0-.26-.61c-1.12-.86-2.27-1.68-3.41-2.52l-5.84-4.27a1.46,1.46,0,0,0-2.39.54A15.12,15.12,0,0,0,37.43,52.33Zm29.72,5.83A1.47,1.47,0,0,0,66,56.62L59.8,55c-1.61-.43-3.22-.88-4.85-1.29a.94.94,0,0,0-.78.16.91.91,0,0,0,0,.79c.73,1.47,1.49,2.92,2.26,4.37,1,1.87,2,3.73,3,5.6a1.47,1.47,0,0,0,2.45.57A15.33,15.33,0,0,0,67,58.78,6.17,6.17,0,0,0,67.15,58.16Zm1-6.66a15,15,0,0,0-1.79-6,1.47,1.47,0,0,0-2.4-.53c-1.25.92-2.48,1.87-3.73,2.79-1.76,1.29-3.54,2.55-5.3,3.84a1,1,0,0,0-.4.51c-.14.47.14.78.76.89,1.5.26,3,.5,4.49.78,2.19.41,4.38.85,6.57,1.27a1.4,1.4,0,0,0,1.8-1.32C68.17,53,68.13,52.39,68.13,51.5Z"/><path class="cls-2" d="M52.78,68.29c-1.41-.25-2.81-.45-4.18-.75a1.4,1.4,0,0,1-1-2.07Q49.85,60.22,52.14,55c.1-.23.41-.54.6-.52a1,1,0,0,1,.66.53q2.33,5.2,4.59,10.45a1.41,1.41,0,0,1-1,2.1C55.6,67.85,54.2,68,52.78,68.29Z"/><path class="cls-2" d="M44.6,65.61a3.51,3.51,0,0,1-.74-.34,15.18,15.18,0,0,1-5.24-6.54,1.43,1.43,0,0,1,1-2.11l7.88-2.16,3-.82c.35-.09.7-.18,1,.16s.1.65-.07,1q-2.64,4.93-5.27,9.89A1.62,1.62,0,0,1,44.6,65.61Z"/><path class="cls-2" d="M53.39,44.77l.24-5.6a1.45,1.45,0,0,1,1.93-1.54,15.22,15.22,0,0,1,7.36,3.55,1.47,1.47,0,0,1,0,2.45l-5.73,4.9c-1,.82-1.86,1.69-2.83,2.49a1.12,1.12,0,0,1-.83.22c-.38-.08-.4-.47-.39-.82.09-1.89.16-3.77.24-5.65Z"/><path class="cls-2" d="M52.26,43.25c0,1.41,0,2.83,0,4.24,0,1,.14,2,.16,3a1,1,0,0,1-.37.71.93.93,0,0,1-.79-.17c-1.58-1.32-3.12-2.68-4.68-4l-3.88-3.36a1.48,1.48,0,0,1,0-2.52,15.23,15.23,0,0,1,7.47-3.55A1.42,1.42,0,0,1,52,39c.07,1.41.12,2.83.18,4.24Z"/><path class="cls-2" d="M37.43,52.33a15.12,15.12,0,0,1,1.83-6.87,1.46,1.46,0,0,1,2.39-.54l5.84,4.27c1.14.84,2.29,1.66,3.41,2.52a.74.74,0,0,1,.26.61.9.9,0,0,1-.53.55c-.66.16-1.34.22-2,.35-3.11.58-6.21,1.18-9.32,1.77a1.44,1.44,0,0,1-1.87-1.41C37.41,53.17,37.43,52.74,37.43,52.33Z"/><path class="cls-2" d="M67.15,58.16a6.17,6.17,0,0,1-.19.62,15.33,15.33,0,0,1-5.09,6.4,1.47,1.47,0,0,1-2.45-.57c-1-1.87-2-3.73-3-5.6-.77-1.45-1.53-2.9-2.26-4.37a.91.91,0,0,1,0-.79.94.94,0,0,1,.78-.16c1.63.41,3.24.86,4.85,1.29L66,56.62A1.47,1.47,0,0,1,67.15,58.16Z"/><path class="cls-2" d="M68.13,51.5c0,.89,0,1.54,0,2.18A1.4,1.4,0,0,1,66.33,55c-2.19-.42-4.38-.86-6.57-1.27-1.49-.28-3-.52-4.49-.78-.62-.11-.9-.42-.76-.89a1,1,0,0,1,.4-.51c1.76-1.29,3.54-2.55,5.3-3.84,1.25-.92,2.48-1.87,3.73-2.79a1.47,1.47,0,0,1,2.4.53A15,15,0,0,1,68.13,51.5Z"/><path class="cls-3" d="M26.23,12.14A14.93,14.93,0,1,0,41.11,25.92,14.94,14.94,0,0,0,26.23,12.14Z"/><path class="cls-3" d="M26.23,12.14A14.93,14.93,0,1,1,11.29,27.05,15,15,0,0,1,26.23,12.14Zm0,29a14.09,14.09,0,1,0-14.09-14A14.13,14.13,0,0,0,26.22,41.17Z"/><path class="cls-1" d="M26.22,41.17a14.09,14.09,0,1,1,14-15.47,14.09,14.09,0,0,1-14,15.47Zm1.1-15.1.29-.09c1.24-.35,2.42-.87,3.63-1.29,2.17-.75,4.31-1.56,6.47-2.32.27-.1.28-.2.17-.43a12.76,12.76,0,0,0-5.48-6c-.22-.12-.32-.12-.44.14-.66,1.46-1.34,2.91-2,4.37C29.09,22.3,28.12,24.11,27.32,26.07Zm-2.05,0a1.44,1.44,0,0,0-.07-.22c-.69-2-1.49-3.95-2.15-6-.48-1.44-1-2.87-1.54-4.31-.1-.27-.2-.28-.43-.17a12.8,12.8,0,0,0-6,5.48c-.14.24-.11.33.14.44,2.57,1.18,5.12,2.43,7.71,3.59C23.69,25.26,24.45,25.66,25.27,26.06Zm-.1,2-.13,0q-5.19,1.88-10.37,3.73c-.28.1-.2.22-.13.4a12.85,12.85,0,0,0,5.5,6c.23.12.31.09.42-.15q1.58-3.37,3.17-6.75Zm1,.46a.8.8,0,0,0-.08.14q-2.35,5-4.69,10c-.12.25,0,.28.19.34a12.7,12.7,0,0,0,8.12.39c.26-.07.34-.14.23-.42-.83-2.26-1.64-4.53-2.46-6.79Zm.13-2.91c.35-.72.69-1.4,1-2.09.44-.94.84-1.9,1.3-2.83.84-1.69,1.61-3.42,2.43-5.11.09-.19.07-.27-.14-.34a12.75,12.75,0,0,0-8.25-.39c-.22.06-.24.15-.17.35.82,2.33,1.7,4.62,2.51,6.94C25.38,23.28,25.78,24.43,26.29,25.59Zm1.4,1.55,1.7.84,8.28,3.89c.23.11.35.1.42-.15.14-.46.31-.9.44-1.36a12.63,12.63,0,0,0,.37-4.54,11.29,11.29,0,0,0-.42-2.22c-.07-.23-.14-.32-.42-.23-1.55.5-3.06,1.15-4.61,1.66-1,.32-1.92.73-2.9,1S28.67,26.76,27.69,27.14Zm-.47,1c0,.05,0,.06,0,.07q1.88,5.2,3.74,10.4c.1.27.22.22.41.13a12.65,12.65,0,0,0,6-5.48c.12-.21.14-.31-.13-.43-2-.94-4-1.9-6.08-2.85ZM24.75,27c-.07-.14-.18-.15-.27-.19l-2.94-1.38-6.81-3.21c-.22-.1-.3-.07-.38.16a12.72,12.72,0,0,0-.4,8.15c.08.29.18.31.44.22,2.68-1,5.36-1.94,8-2.91Z"/><path class="cls-1" d="M31.17,21.61a.91.91,0,0,1,.93.43,1,1,0,0,1-.1,1.08,2.93,2.93,0,0,1-1.52,1,2.9,2.9,0,0,1-.88.21c-.14,0-.2,0-.18-.19a4,4,0,0,1,.91-2A1,1,0,0,1,31.17,21.61Z"/><path class="cls-1" d="M21.46,21.1a1.58,1.58,0,0,1,1.27.9,5.4,5.4,0,0,1,.59,1.72c0,.17,0,.27-.21.21a5.1,5.1,0,0,1-2-.93,1.2,1.2,0,0,1-.45-1.32A.85.85,0,0,1,21.46,21.1Z"/><path class="cls-1" d="M21.15,32.78a.86.86,0,0,1-.86-1.15,1.41,1.41,0,0,1,.68-.85,6,6,0,0,1,1.9-.69c.18,0,.2,0,.17.17a4.17,4.17,0,0,1-1,2.11A1.19,1.19,0,0,1,21.15,32.78Z"/><path class="cls-1" d="M26.8,33.64a2.75,2.75,0,0,1-.06.47,1,1,0,0,1-1,.78,1,1,0,0,1-.86-1,2,2,0,0,1,.08-.81,6.7,6.7,0,0,1,.81-1.63c.07-.1.12-.2.23,0A4.65,4.65,0,0,1,26.8,33.64Z"/><path class="cls-1" d="M26.41,22.82a5,5,0,0,1-.94-2.27,1.19,1.19,0,0,1,.47-1.1.87.87,0,0,1,1.37.37,1.39,1.39,0,0,1,.11.83A5.58,5.58,0,0,1,26.41,22.82Z"/><path class="cls-1" d="M30.63,27.51a5.26,5.26,0,0,1,2.1-.89,1.5,1.5,0,0,1,.63,0,1,1,0,0,1,.83,1,1,1,0,0,1-1,.89,1.91,1.91,0,0,1-.67-.06A5.87,5.87,0,0,1,30.63,27.51Z"/><path class="cls-1" d="M31.47,32.35a.84.84,0,0,1-.42.76,1,1,0,0,1-1,0,1.61,1.61,0,0,1-.6-.64,6.49,6.49,0,0,1-.63-1.81c0-.15,0-.22.15-.18a4.55,4.55,0,0,1,2,.87A1.26,1.26,0,0,1,31.47,32.35Z"/><path class="cls-1" d="M21.78,27a4.8,4.8,0,0,1-2.06.89,1.51,1.51,0,0,1-.93-.14A.91.91,0,0,1,18.92,26a1.55,1.55,0,0,1,.74-.06A5.5,5.5,0,0,1,21.78,27Z"/></svg>