<?xml version="1.0" encoding="UTF-8"?>
<svg xmlns="http://www.w3.org/2000/svg" viewBox="0 0 1920 1080">
    <defs>
        <style>
            .c {
            fill: #99b6dc;
            }

            .c, .d, .e, .f, .g, .h {
            stroke-width: 0px;
            }

            .d {
            fill: #6692cb;
            }

            .e {
            fill: #0049a8;
            }

            .f {
            fill: #336db9;
            }

            .g {
            fill: #ec7f32;
            }

            .h {
            fill: #ffe6cc;
            }
        </style>
    </defs>
    <g id="a" data-name="Calque 9">
        <g>
            <path class="f"
                  d="M1342.6,759.21c19.77-34.18,35.1-71.25,45.18-110.42h-855.56c10.08,39.18,25.41,76.25,45.18,110.42h765.19Z"/>
            <path class="d"
                  d="M667.85,869.63h584.3c35.78-31.58,66.4-68.86,90.44-110.42h-765.19c24.04,41.56,54.67,78.85,90.44,110.42Z"/>
            <path class="g"
                  d="M1401.69,538.36h-883.38c0-38.12,4.83-75.12,13.91-110.42,10.09-39.17,25.41-76.24,45.18-110.42,24.05-41.57,54.67-78.85,90.45-110.43,77.86-68.72,180.13-110.42,292.15-110.42s214.29,41.7,292.15,110.42c35.78,31.58,66.4,68.86,90.45,110.43,19.77,34.18,35.09,71.25,45.18,110.42,9.08,35.3,13.91,72.3,13.91,110.42Z"/>
            <path class="c"
                  d="M667.85,869.63c77.86,68.72,180.14,110.42,292.15,110.42s214.29-41.7,292.15-110.42h-584.3Z"/>
            <path class="e"
                  d="M532.22,648.79h855.56c9.08-35.29,13.92-72.29,13.92-110.42h-883.39c0,38.13,4.83,75.13,13.92,110.42Z"/>
        </g>
    </g>
    <g id="b" data-name="Calque 4">
        <path class="e"
              d="M1180.81,472.8h-101.32c-4.83,0-8.93,1.7-12.3,5.07s-5.07,7.49-5.07,12.3v361.85c0,4.83-1.57,8.93-4.7,12.3-3.14,3.38-7.36,5.07-12.67,5.07h-108.55c-4.83,0-8.93-1.68-12.3-5.07-3.38-3.37-5.07-7.47-5.07-12.3v-361.85c0-4.82-1.57-8.92-4.7-12.3-3.14-3.37-7.36-5.07-12.67-5.07h-102.77c-4.83,0-8.93-1.69-12.3-5.07-3.38-3.37-5.07-7.47-5.07-12.3v-98.42c0-4.82,1.69-8.92,5.07-12.3s7.47-5.07,12.3-5.07h382.11c5.3,0,9.52,1.7,12.67,5.07,3.13,3.38,4.7,7.49,4.7,12.3v98.42c0,4.83-1.57,8.93-4.7,12.3-3.14,3.38-7.36,5.07-12.67,5.07Z"/>
        <path class="g"
              d="M1155.63,447.62h-101.32c-4.83,0-8.93,1.7-12.3,5.07-3.38,3.38-5.07,7.49-5.07,12.3v361.85c0,4.83-1.57,8.93-4.7,12.3-3.14,3.38-7.36,5.07-12.67,5.07h-108.55c-4.83,0-8.93-1.68-12.3-5.07-3.38-3.37-5.07-7.47-5.07-12.3v-361.85c0-4.82-1.57-8.92-4.7-12.3-3.14-3.37-7.36-5.07-12.67-5.07h-102.77c-4.83,0-8.93-1.69-12.3-5.07-3.38-3.37-5.07-7.47-5.07-12.3v-98.42c0-4.82,1.69-8.92,5.07-12.3s7.47-5.07,12.3-5.07h382.11c5.3,0,9.52,1.7,12.67,5.07,3.13,3.38,4.7,7.49,4.7,12.3v98.42c0,4.83-1.57,8.93-4.7,12.3-3.14,3.38-7.36,5.07-12.67,5.07Z"/>
        <path class="h"
              d="M1130.45,422.44h-101.32c-4.83,0-8.93,1.7-12.3,5.07-3.38,3.38-5.07,7.49-5.07,12.3v361.85c0,4.83-1.57,8.93-4.7,12.3-3.14,3.38-7.36,5.07-12.67,5.07h-108.55c-4.83,0-8.93-1.68-12.3-5.07-3.38-3.37-5.07-7.47-5.07-12.3v-361.85c0-4.82-1.57-8.92-4.7-12.3-3.14-3.37-7.36-5.07-12.67-5.07h-102.77c-4.83,0-8.93-1.69-12.3-5.07-3.38-3.37-5.07-7.47-5.07-12.3v-98.42c0-4.82,1.69-8.92,5.07-12.3s7.47-5.07,12.3-5.07h382.11c5.3,0,9.52,1.7,12.67,5.07,3.13,3.38,4.7,7.49,4.7,12.3v98.42c0,4.83-1.57,8.93-4.7,12.3-3.14,3.38-7.36,5.07-12.67,5.07Z"/>
    </g>
</svg>